<?xml version="1.0" standalone="no"?>
<!DOCTYPE svg PUBLIC "-//W3C//DTD SVG 20010904//EN"
 "http://www.w3.org/TR/2001/REC-SVG-20010904/DTD/svg10.dtd">
<svg version="1.0" xmlns="http://www.w3.org/2000/svg"
 width="700.000000pt" height="700.000000pt" viewBox="0 0 700.000000 700.000000"
 preserveAspectRatio="xMidYMid meet">
<metadata>
Created by potrace 1.11, written by Peter Selinger 2001-2013
</metadata>
<g transform="translate(0.000000,700.000000) scale(0.100000,-0.100000)"
fill="#000000" stroke="none">
<path d="M3439 5584 c-26 -7 -64 -15 -85 -18 -22 -3 -50 -8 -64 -11 -14 -3
-38 -8 -55 -10 -16 -3 -41 -7 -55 -10 -98 -19 -129 -25 -160 -30 -19 -3 -42
-8 -50 -10 -8 -2 -28 -7 -45 -10 -16 -2 -41 -7 -55 -10 -106 -21 -128 -25
-152 -29 -15 -3 -63 -11 -105 -20 -43 -8 -94 -18 -113 -21 -19 -3 -51 -9 -70
-13 -41 -9 -44 -9 -92 5 -33 10 -45 8 -90 -13 -29 -14 -61 -29 -70 -34 -9 -5
-32 -12 -50 -15 -18 -3 -64 -12 -103 -20 -104 -21 -139 -27 -152 -28 -23 -1
-56 -46 -57 -77 -1 -38 36 -18 -438 -244 -553 -263 -618 -296 -619 -309 0 -7
-2 -19 -4 -28 -3 -19 -3 -21 215 -419 67 -124 138 -254 158 -290 19 -36 45
-83 57 -105 12 -22 37 -67 55 -100 18 -33 103 -190 190 -350 207 -382 217
-399 258 -475 19 -36 38 -69 42 -75 4 -5 31 -55 60 -110 120 -227 125 -234
172 -235 14 0 102 36 195 81 92 44 209 100 258 124 50 24 171 82 270 130 407
196 412 198 560 181 39 -5 77 -9 85 -11 8 -1 40 -6 71 -9 31 -4 67 -9 80 -11
13 -3 48 -7 79 -10 31 -3 64 -7 75 -9 11 -2 47 -7 80 -10 33 -4 69 -9 80 -10
11 -2 49 -8 85 -12 36 -4 68 -9 73 -10 4 -1 16 -2 27 -3 20 -1 -59 -99 -405
-501 -45 -52 -87 -104 -93 -116 -20 -39 -4 -72 56 -115 26 -18 99 -73 162
-121 63 -49 126 -97 140 -107 14 -11 79 -60 145 -110 66 -50 131 -99 145 -110
14 -11 79 -60 145 -110 66 -50 125 -94 130 -99 6 -4 102 -78 215 -163 200
-151 244 -175 275 -152 12 9 124 138 175 202 19 24 42 51 50 60 8 9 40 46 70
81 30 36 57 67 60 70 7 7 114 134 165 195 22 27 45 53 50 59 6 6 35 40 65 76
125 147 185 218 230 270 26 30 115 134 196 231 82 97 168 198 191 225 23 27
56 67 75 88 18 22 51 61 73 86 173 201 175 203 175 233 0 33 -18 51 -140 141
-58 43 -120 91 -137 107 -18 16 -33 26 -33 22 0 -5 -4 -3 -8 2 -6 10 -76 65
-134 106 -13 10 -96 73 -185 140 -89 68 -171 131 -183 139 -13 8 -28 20 -34
25 -6 6 -76 60 -156 120 -80 60 -170 128 -200 152 -129 101 -152 114 -188 107
-19 -4 -41 -19 -55 -38 -14 -17 -41 -49 -60 -71 -20 -22 -67 -77 -104 -122
-37 -45 -71 -82 -74 -82 -4 -1 -3 16 1 37 5 20 11 60 15 87 3 28 8 62 10 76 3
14 7 42 10 62 3 20 7 54 10 74 3 20 7 48 10 62 2 14 7 46 10 71 3 25 7 54 9
66 2 12 7 45 11 74 4 29 9 62 11 74 2 12 7 41 10 66 3 25 8 52 9 61 2 9 6 40
10 69 4 29 9 62 11 74 2 11 6 38 9 61 3 22 8 58 12 80 7 49 9 66 18 130 4 28
9 57 10 65 2 9 6 41 10 72 7 52 5 59 -18 82 -15 15 -38 26 -54 27 -15 0 -37 2
-48 5 -11 2 -40 6 -65 9 -25 3 -56 8 -70 10 -14 2 -50 7 -80 10 -30 3 -66 8
-80 10 -14 2 -47 7 -75 10 -27 3 -61 7 -75 10 -14 2 -50 6 -80 9 -30 4 -64 8
-75 10 -11 2 -49 7 -85 11 -36 4 -72 9 -81 10 -9 2 -40 6 -70 10 -30 3 -65 8
-79 10 -14 2 -47 7 -75 10 -50 5 -74 8 -170 21 -27 4 -55 7 -62 7 -11 0 -19
22 -30 77 -6 36 -31 70 -51 72 -48 4 -71 2 -113 -8z"/>
</g>
</svg>
