<?xml version="1.0" standalone="no"?>
<!DOCTYPE svg PUBLIC "-//W3C//DTD SVG 20010904//EN"
 "http://www.w3.org/TR/2001/REC-SVG-20010904/DTD/svg10.dtd">
<svg version="1.0" xmlns="http://www.w3.org/2000/svg"
 width="700.000000pt" height="700.000000pt" viewBox="0 0 700.000000 700.000000"
 preserveAspectRatio="xMidYMid meet">
<metadata>
Created by potrace 1.11, written by Peter Selinger 2001-2013
</metadata>
<g transform="translate(0.000000,700.000000) scale(0.100000,-0.100000)"
fill="#000000" stroke="none">
<path d="M3369 5696 c-2 -2 -22 -7 -44 -10 -22 -3 -62 -11 -90 -16 -27 -5 -65
-12 -82 -15 -77 -12 -102 -16 -168 -30 -38 -7 -86 -16 -105 -19 -19 -3 -46 -8
-60 -10 -14 -3 -41 -7 -60 -10 -35 -6 -63 -11 -110 -21 -14 -3 -38 -7 -55 -9
-28 -4 -114 -19 -180 -31 -37 -7 -190 -34 -230 -41 -16 -3 -31 -7 -34 -9 -2
-2 -13 1 -25 7 -40 23 -73 19 -153 -16 -45 -20 -97 -38 -118 -42 -21 -3 -47
-8 -59 -10 -11 -2 -46 -8 -76 -14 -65 -11 -121 -21 -135 -24 -38 -7 -79 -62
-64 -88 12 -21 5 -25 -126 -83 -60 -26 -141 -62 -180 -80 -38 -18 -173 -79
-300 -135 -126 -56 -266 -119 -310 -139 -44 -21 -116 -53 -159 -72 -82 -35
-121 -74 -108 -108 6 -17 204 -365 251 -441 5 -8 47 -80 93 -159 46 -79 93
-162 106 -183 13 -22 77 -132 142 -245 66 -113 120 -210 120 -214 0 -5 5 -9
10 -9 6 0 10 -4 10 -10 0 -5 20 -44 45 -86 25 -41 45 -80 45 -85 0 -5 4 -9 9
-9 5 0 11 -8 14 -17 3 -10 20 -40 36 -68 17 -27 42 -72 57 -100 14 -27 34 -60
44 -75 15 -21 251 -427 287 -492 27 -49 77 -55 157 -18 34 16 153 70 266 120
113 51 225 102 250 113 25 11 47 21 50 22 3 0 41 18 84 38 43 20 81 37 83 37
2 0 43 18 91 41 142 66 292 130 315 135 12 2 44 8 72 13 27 5 52 8 55 6 3 -2
37 -6 75 -10 39 -4 78 -9 87 -10 9 -2 48 -7 85 -10 37 -4 75 -9 83 -10 9 -2
43 -6 75 -10 33 -4 74 -9 90 -11 17 -2 53 -7 80 -9 28 -3 68 -8 90 -11 22 -3
56 -7 75 -9 99 -9 156 -18 162 -24 4 -4 -5 -20 -20 -37 -15 -17 -56 -63 -92
-103 -36 -40 -78 -87 -95 -105 -35 -36 -173 -189 -205 -226 -12 -14 -40 -45
-63 -70 -87 -93 -98 -110 -93 -144 3 -17 9 -32 15 -34 9 -3 65 -44 98 -72 7
-5 16 -10 22 -10 5 0 11 -4 13 -9 2 -4 32 -28 68 -53 36 -24 93 -64 125 -88
33 -25 89 -65 125 -89 36 -25 70 -49 75 -53 6 -5 42 -30 80 -58 39 -27 75 -53
81 -58 5 -5 30 -22 55 -38 24 -16 46 -31 49 -34 6 -7 614 -440 638 -455 9 -5
24 -17 34 -26 10 -8 35 -16 55 -17 48 -3 51 0 268 242 44 49 91 101 105 115
14 15 57 62 95 105 100 112 102 113 193 214 46 50 91 99 100 110 15 17 121
135 183 203 115 125 211 231 244 268 22 25 47 52 55 61 8 9 33 36 55 61 22 24
66 73 99 109 33 36 80 88 105 116 25 28 87 95 136 149 50 55 106 118 126 140
30 32 36 47 34 75 -2 20 -11 40 -22 48 -68 50 -170 123 -219 157 -31 22 -98
70 -148 106 -50 36 -143 102 -206 147 -63 45 -123 87 -133 94 -10 7 -127 90
-260 185 -133 94 -247 177 -254 182 -7 6 -16 11 -22 11 -5 0 -11 4 -13 8 -1 5
-27 25 -56 45 -29 20 -71 50 -92 67 -21 16 -42 30 -48 30 -6 0 -12 4 -14 9 -4
11 -64 22 -73 13 -4 -4 -10 -7 -15 -7 -8 0 -51 -43 -160 -164 -158 -175 -151
-169 -146 -141 3 14 8 41 11 60 2 19 6 44 9 55 2 11 7 43 10 70 8 57 16 108
22 138 2 12 6 37 9 57 3 20 7 46 10 59 2 13 7 49 11 80 3 31 8 58 9 61 2 3 6
26 10 50 9 63 15 101 20 130 2 14 7 43 10 65 3 23 7 50 9 60 2 11 7 43 10 70
8 60 16 110 22 139 2 11 6 39 9 61 3 22 8 51 10 65 3 14 7 36 10 50 2 14 7 48
12 75 15 92 10 136 -16 154 -13 8 -31 16 -40 18 -47 7 -110 15 -141 18 -80 9
-128 15 -175 21 -27 4 -61 8 -75 9 -41 5 -123 15 -161 20 -20 3 -54 7 -75 10
-21 2 -59 7 -84 10 -48 6 -125 15 -175 20 -16 1 -48 6 -70 9 -22 3 -65 8 -95
12 -30 3 -66 7 -80 9 -14 2 -47 6 -75 9 -27 3 -66 8 -85 10 -19 3 -60 8 -90
11 -65 8 -67 10 -75 55 -9 53 -34 97 -58 104 -25 7 -82 8 -88 2z"/>
</g>
</svg>
