<?xml version="1.0" standalone="no"?>
<!DOCTYPE svg PUBLIC "-//W3C//DTD SVG 20010904//EN"
 "http://www.w3.org/TR/2001/REC-SVG-20010904/DTD/svg10.dtd">
<svg version="1.0" xmlns="http://www.w3.org/2000/svg"
 width="700.000000pt" height="700.000000pt" viewBox="0 0 700.000000 700.000000"
 preserveAspectRatio="xMidYMid meet">
<metadata>
Created by potrace 1.11, written by Peter Selinger 2001-2013
</metadata>
<g transform="translate(0.000000,700.000000) scale(0.100000,-0.100000)"
fill="#000000" stroke="none">
<path d="M0 3500 l0 -3500 3500 0 3500 0 0 3500 0 3500 -3500 0 -3500 0 0
-3500z m3607 1908 c12 -13 25 -44 31 -70 l9 -47 -31 -3 c-17 -2 266 -41 629
-87 363 -46 675 -86 693 -89 20 -3 40 -14 49 -28 14 -21 7 -79 -86 -716 -56
-381 -105 -701 -109 -710 -9 -22 -742 -879 -756 -884 -6 -2 -241 25 -521 61
-280 36 -516 64 -525 62 -8 -2 19 -7 60 -11 109 -12 127 -22 57 -30 -31 -4
-59 -12 -63 -17 -3 -5 -15 -7 -27 -4 -14 4 -17 3 -9 -2 8 -6 -154 -89 -489
-248 -433 -206 -504 -237 -526 -229 -22 7 -124 187 -599 1054 -315 575 -573
1055 -574 1067 0 12 11 30 23 40 13 10 252 126 531 258 482 228 506 241 502
264 -7 40 14 70 53 80 20 5 90 19 156 31 83 15 143 32 193 56 81 38 89 40 117
20 18 -12 90 0 585 94 311 59 574 108 586 109 11 1 30 -9 41 -21z m2155 -1903
c767 -579 718 -540 718 -569 0 -16 -227 -288 -751 -902 -413 -483 -767 -896
-785 -916 -21 -23 -44 -38 -58 -38 -14 0 -261 180 -692 505 -594 449 -669 508
-672 534 -3 26 83 131 764 928 421 494 776 906 787 916 11 10 31 17 43 15 13
-2 303 -214 646 -473z"/>
<path d="M3318 5323 c6 -2 18 -2 25 0 6 3 1 5 -13 5 -14 0 -19 -2 -12 -5z"/>
<path d="M3440 5304 c47 -7 99 -12 115 -12 17 0 -8 6 -55 14 -47 7 -98 12
-115 12 -16 0 8 -6 55 -14z"/>
<path d="M3236 5275 c-3 -9 -6 -26 -5 -38 1 -14 4 -9 9 13 9 37 7 52 -4 25z"/>
<path d="M3390 5205 c-5 -14 -7 -38 -4 -55 4 -18 2 -30 -4 -30 -5 0 -8 10 -6
23 4 20 3 20 -7 -3 -32 -66 -36 -79 -31 -84 12 -13 22 -5 22 19 0 16 6 25 15
25 14 0 19 -11 16 -36 -1 -10 30 -30 33 -22 1 2 0 45 -2 96 -3 92 -14 114 -32
67z"/>
<path d="M3222 5180 c0 -19 2 -27 5 -17 2 9 2 25 0 35 -3 9 -5 1 -5 -18z"/>
<path d="M3212 5110 c0 -19 2 -27 5 -17 2 9 2 25 0 35 -3 9 -5 1 -5 -18z"/>
<path d="M2041 5013 c0 -36 3 -43 9 -28 5 11 9 15 9 8 1 -6 4 -18 7 -27 4 -11
1 -16 -10 -16 -9 0 -16 -5 -16 -11 0 -6 7 -9 15 -5 17 6 48 -21 40 -35 -4 -5
3 -9 15 -9 12 0 20 3 18 8 -2 4 -21 42 -41 85 -21 42 -40 77 -42 77 -3 0 -5
-21 -4 -47z"/>
<path d="M3201 5024 c0 -11 3 -14 6 -6 3 7 2 16 -1 19 -3 4 -6 -2 -5 -13z"/>
<path d="M3345 4996 c-29 -23 -28 -46 2 -46 12 0 13 -3 4 -14 -9 -11 -7 -15 9
-19 17 -4 20 -2 15 13 -5 15 -2 17 15 13 26 -7 27 20 2 52 l-19 23 -28 -22z"/>
<path d="M3186 4948 c-3 -13 -5 -34 -5 -48 1 -15 5 -7 10 19 9 47 6 68 -5 29z"/>
<path d="M1901 4894 c0 -11 3 -14 6 -6 3 7 2 16 -1 19 -3 4 -6 -2 -5 -13z"/>
<path d="M2040 4895 c0 -8 4 -15 10 -15 5 0 7 7 4 15 -4 8 -8 15 -10 15 -2 0
-4 -7 -4 -15z"/>
<path d="M3172 4840 c0 -19 2 -27 5 -17 2 9 2 25 0 35 -3 9 -5 1 -5 -18z"/>
<path d="M2076 4816 c-14 -22 -13 -24 11 -35 21 -10 27 -9 39 6 18 25 18 28
-10 41 -21 9 -27 8 -40 -12z"/>
<path d="M3162 4770 c0 -19 2 -27 5 -17 2 9 2 25 0 35 -3 9 -5 1 -5 -18z"/>
<path d="M3151 4684 c0 -11 3 -14 6 -6 3 7 2 16 -1 19 -3 4 -6 -2 -5 -13z"/>
<path d="M1951 4664 c0 -11 3 -14 6 -6 3 7 2 16 -1 19 -3 4 -6 -2 -5 -13z"/>
<path d="M3135 4605 c-3 -31 -5 -59 -2 -61 3 -3 8 20 12 51 3 31 5 59 2 61 -3
3 -8 -20 -12 -51z"/>
<path d="M3122 4500 c0 -19 2 -27 5 -17 2 9 2 25 0 35 -3 9 -5 1 -5 -18z"/>
<path d="M980 4503 c0 -4 13 -48 28 -98 20 -61 31 -85 37 -75 5 9 4 15 -3 18
-15 5 -16 29 -2 37 13 8 42 -14 34 -26 -3 -5 4 -9 15 -9 12 0 21 3 21 6 0 8
-109 142 -121 150 -5 3 -9 2 -9 -3z m56 -100 c-4 -4 -11 -1 -16 7 -16 25 -11
35 7 17 9 -9 13 -20 9 -24z"/>
<path d="M2001 4434 c0 -11 3 -14 6 -6 3 7 2 16 -1 19 -3 4 -6 -2 -5 -13z"/>
<path d="M3111 4414 c0 -11 3 -14 6 -6 3 7 2 16 -1 19 -3 4 -6 -2 -5 -13z"/>
<path d="M3096 4338 c-3 -13 -5 -34 -5 -48 1 -15 5 -7 10 19 9 47 6 68 -5 29z"/>
<path d="M1084 4306 c-3 -7 -4 -17 -3 -22 1 -5 -1 -17 -6 -28 -9 -22 13 -40
31 -25 8 7 14 6 17 -3 4 -10 7 -11 18 0 11 10 11 12 -1 13 -8 0 -4 4 8 10 27
10 24 34 -4 34 -10 0 -22 8 -26 18 -9 20 -27 22 -34 3z"/>
<path d="M3082 4230 c0 -19 2 -27 5 -17 2 9 2 25 0 35 -3 9 -5 1 -5 -18z"/>
<path d="M2051 4204 c0 -11 3 -14 6 -6 3 7 2 16 -1 19 -3 4 -6 -2 -5 -13z"/>
<path d="M2948 4177 c-10 -23 -35 -61 -57 -84 l-38 -43 51 -23 c29 -13 69 -39
89 -57 20 -17 37 -28 37 -24 0 5 4 3 9 -4 5 -8 15 37 25 113 10 70 15 129 12
132 -3 4 -6 -6 -6 -20 l0 -26 -36 21 c-20 11 -41 29 -47 39 -16 26 -20 24 -39
-24z"/>
<path d="M3905 4120 c-38 -27 -78 -59 -87 -71 -43 -52 -3 -114 69 -106 41 4
41 4 32 -22 -5 -14 -21 -36 -36 -47 l-26 -22 54 -7 c30 -3 63 -9 74 -12 19 -6
20 -5 2 15 -10 11 -21 40 -24 64 -6 42 -6 43 14 26 28 -25 75 -23 101 5 41 44
32 66 -97 219 -3 3 -37 -16 -76 -42z"/>
<path d="M2081 4064 c0 -11 3 -14 6 -6 3 7 2 16 -1 19 -3 4 -6 -2 -5 -13z"/>
<path d="M2101 3974 c0 -11 3 -14 6 -6 3 7 2 16 -1 19 -3 4 -6 -2 -5 -13z"/>
<path d="M2088 3933 c-23 -27 -28 -51 -18 -78 9 -23 56 -52 67 -41 6 6 -18
118 -27 129 -3 4 -13 -1 -22 -10z"/>
<path d="M3032 3890 c0 -19 2 -27 5 -17 2 9 2 25 0 35 -3 9 -5 1 -5 -18z"/>
<path d="M3022 3820 c0 -19 2 -27 5 -17 2 9 2 25 0 35 -3 9 -5 1 -5 -18z"/>
<path d="M2107 3789 c-46 -7 -55 -15 -63 -55 -8 -43 22 -78 70 -78 54 0 60 12
44 81 l-13 58 -38 -6z"/>
<path d="M3011 3734 c0 -11 3 -14 6 -6 3 7 2 16 -1 19 -3 4 -6 -2 -5 -13z"/>
<path d="M3002 3685 c0 -16 2 -22 5 -12 2 9 2 23 0 30 -3 6 -5 -1 -5 -18z"/>
<path d="M2992 3620 c0 -19 2 -27 5 -17 2 9 2 25 0 35 -3 9 -5 1 -5 -18z"/>
<path d="M2181 3604 c0 -11 3 -14 6 -6 3 7 2 16 -1 19 -3 4 -6 -2 -5 -13z"/>
<path d="M2982 3550 c0 -19 2 -27 5 -17 2 9 2 25 0 35 -3 9 -5 1 -5 -18z"/>
<path d="M2971 3464 c0 -11 3 -14 6 -6 3 7 2 16 -1 19 -3 4 -6 -2 -5 -13z"/>
<path d="M2956 3388 c-3 -13 -5 -34 -5 -48 1 -15 5 -7 10 19 9 47 6 68 -5 29z"/>
<path d="M2231 3374 c0 -11 3 -14 6 -6 3 7 2 16 -1 19 -3 4 -6 -2 -5 -13z"/>
<path d="M2942 3280 c0 -19 2 -27 5 -17 2 9 2 25 0 35 -3 9 -5 1 -5 -18z"/>
<path d="M2932 3210 c0 -19 2 -27 5 -17 2 9 2 25 0 35 -3 9 -5 1 -5 -18z"/>
<path d="M2281 3144 c0 -11 3 -14 6 -6 3 7 2 16 -1 19 -3 4 -6 -2 -5 -13z"/>
<path d="M2921 3124 c0 -11 3 -14 6 -6 3 7 2 16 -1 19 -3 4 -6 -2 -5 -13z"/>
<path d="M2907 3056 c-4 -27 -6 -65 -6 -85 1 -20 6 -2 10 39 10 84 6 122 -4
46z"/>
<path d="M2311 3004 c0 -11 3 -14 6 -6 3 7 2 16 -1 19 -3 4 -6 -2 -5 -13z"/>
<path d="M2331 2914 c0 -11 3 -14 6 -6 3 7 2 16 -1 19 -3 4 -6 -2 -5 -13z"/>
<path d="M2948 2903 c7 -3 16 -2 19 1 4 3 -2 6 -13 5 -11 0 -14 -3 -6 -6z"/>
<path d="M2361 2774 c0 -11 3 -14 6 -6 3 7 2 16 -1 19 -3 4 -6 -2 -5 -13z"/>
<path d="M2738 2783 c7 -3 16 -2 19 1 4 3 -2 6 -13 5 -11 0 -14 -3 -6 -6z"/>
<path d="M2578 2753 c7 -3 16 -2 19 1 4 3 -2 6 -13 5 -11 0 -14 -3 -6 -6z"/>
<path d="M5144 3819 c-10 -11 -19 -26 -20 -32 -3 -34 -5 -38 -15 -32 -6 4 -8
14 -4 24 5 13 3 13 -12 -3 -13 -13 -15 -20 -5 -23 18 -7 15 -30 -5 -42 -16 -9
-16 -12 -3 -21 22 -14 24 -13 37 18 7 15 26 51 43 80 21 36 26 52 17 52 -8 0
-22 -9 -33 -21z"/>
<path d="M5043 3743 c-15 -5 -17 -23 -4 -23 5 0 11 7 15 15 3 8 4 15 3 14 -1
0 -8 -3 -14 -6z"/>
<path d="M4980 3647 c0 -43 0 -44 33 -39 17 2 38 9 45 14 19 16 14 38 -8 38
-11 0 -20 7 -20 15 0 9 -9 15 -25 15 -23 0 -25 -4 -25 -43z"/>
<path d="M4938 2705 c-38 -21 -49 -67 -47 -189 l2 -107 26 5 c14 3 53 10 87
15 143 22 194 52 194 115 0 49 -40 80 -96 73 -39 -4 -40 -3 -36 24 3 20 -3 35
-21 53 -29 29 -68 33 -109 11z"/>
<path d="M4978 1453 c-45 -7 -64 -53 -22 -53 8 0 14 -7 14 -16 0 -10 7 -14 23
-12 18 2 23 10 25 46 2 23 0 41 -5 41 -4 -1 -20 -4 -35 -6z"/>
<path d="M4852 1300 c-23 -44 -38 -80 -34 -80 18 1 57 41 57 59 0 11 5 20 10
18 6 -1 9 -8 8 -16 -1 -9 4 -8 15 4 13 13 14 19 5 22 -16 6 -17 40 -1 45 12 4
3 28 -10 28 -4 0 -26 -36 -50 -80z"/>
<path d="M4936 1324 c-9 -24 -7 -28 9 -14 17 14 20 30 6 30 -5 0 -12 -7 -15
-16z"/>
</g>
</svg>
