<?xml version="1.0" encoding="UTF-8" standalone="no"?>
<svg
   xmlns:dc="http://purl.org/dc/elements/1.1/"
   xmlns:cc="http://creativecommons.org/ns#"
   xmlns:rdf="http://www.w3.org/1999/02/22-rdf-syntax-ns#"
   xmlns:svg="http://www.w3.org/2000/svg"
   xmlns="http://www.w3.org/2000/svg"
   xmlns:sodipodi="http://sodipodi.sourceforge.net/DTD/sodipodi-0.dtd"
   xmlns:inkscape="http://www.inkscape.org/namespaces/inkscape"
   id="svg3173"
   version="1.1"
   viewBox="0 0 210 297"
   height="297mm"
   width="210mm"
   sodipodi:docname="5 of diamonds.svg"
   inkscape:version="0.92.3 (2405546, 2018-03-11)">
  <sodipodi:namedview
     pagecolor="#ffffff"
     bordercolor="#666666"
     borderopacity="1"
     objecttolerance="10"
     gridtolerance="10"
     guidetolerance="10"
     inkscape:pageopacity="0"
     inkscape:pageshadow="2"
     inkscape:window-width="1366"
     inkscape:window-height="705"
     id="namedview17"
     showgrid="false"
     inkscape:zoom="0.45014485"
     inkscape:cx="396.85039"
     inkscape:cy="561.25984"
     inkscape:window-x="-8"
     inkscape:window-y="-8"
     inkscape:window-maximized="1"
     inkscape:current-layer="svg3173" />
  <defs
     id="defs3167" />
  <metadata
     id="metadata3170">
    <rdf:RDF>
      <cc:Work
         rdf:about="">
        <dc:format>image/svg+xml</dc:format>
        <dc:type
           rdf:resource="http://purl.org/dc/dcmitype/StillImage" />
        <dc:title />
      </cc:Work>
    </rdf:RDF>
  </metadata>
  <g
     id="layer1"
     transform="matrix(3.359798,0,0,3.3974831,-229.42651,-252.84653)">
    <g
       transform="matrix(0.28096207,0,0,0.28132005,-358.61794,82.544706)"
       id="g6746">
      <rect
         y="-30.444927"
         x="1519.9358"
         height="311.81104"
         width="223.22835"
         id="rect6690-8"
         style="display:inline;fill:#ffffff;fill-opacity:1;stroke:#000000;stroke-width:1.0005666;stroke-miterlimit:4;stroke-dasharray:none;stroke-opacity:1"
         rx="10.677597"
         ry="10.66401" />
      <path
         id="path6722-9"
         d="m 1537.153,39.528358 c -2.1609,-3.568597 -4.4344,-7.037098 -7.2754,-9.999997 2.841,-2.962801 5.1145,-6.4313 7.2754,-10 2.1609,3.5687 4.4343,7.037199 7.2754,10 -2.8411,2.962899 -5.1145,6.4314 -7.2754,9.999997 z"
         style="display:inline;opacity:1;fill:#d40000"
         inkscape:connector-curvature="0" />
      <path
         id="path6724-6"
         d="m 1683.3163,50.24996 c -5.1862,-8.5648 -10.6425,-16.8891 -17.461,-24 6.8185,-7.1108 12.2748,-15.4351 17.461,-24 5.1862,8.5649 10.6424,16.8892 17.4609,24 -6.8185,7.1109 -12.2747,15.4352 -17.4609,24 z"
         style="display:inline;opacity:1;fill:#d40000"
         inkscape:connector-curvature="0" />
      <path
         style="display:inline;opacity:1;fill:#d40000"
         d="m 1725.9475,231.393 c -2.1609,-3.5686 -4.4344,-7.0371 -7.2754,-10 2.841,-2.9628 5.1145,-6.4313 7.2754,-10 2.1609,3.5687 4.4343,7.0372 7.2754,10 -2.8411,2.9629 -5.1145,6.4314 -7.2754,10 z"
         id="path6726-3"
         inkscape:connector-curvature="0" />
      <path
         id="path6728-7"
         d="m 1579.7835,50.24996 c -5.1862,-8.5648 -10.6425,-16.8891 -17.461,-24 6.8185,-7.1108 12.2748,-15.4351 17.461,-24 5.1862,8.5649 10.6424,16.8892 17.4609,24 -6.8185,7.1109 -12.2747,15.4352 -17.4609,24 z"
         style="display:inline;opacity:1;fill:#d40000"
         inkscape:connector-curvature="0" />
      <path
         style="display:inline;opacity:1;fill:#d40000"
         d="m 1631.5499,149.46061 c -5.1862,-8.5648 -10.6425,-16.8891 -17.461,-24 6.8185,-7.1108 12.2748,-15.4351 17.461,-24 5.1862,8.5649 10.6424,16.8892 17.4609,24 -6.8185,7.1109 -12.2747,15.4352 -17.4609,24 z"
         id="path6736-0"
         inkscape:connector-curvature="0" />
      <path
         style="display:inline;opacity:1;fill:#d40000"
         d="m 1579.7835,248.67634 c -5.1862,-8.5648 -10.6425,-16.8891 -17.461,-24 6.8185,-7.1108 12.2748,-15.4351 17.461,-24 5.1862,8.5649 10.6424,16.8892 17.4609,24 -6.8185,7.1109 -12.2747,15.4352 -17.4609,24 z"
         id="path6744-9"
         inkscape:connector-curvature="0" />
      <path
         style="display:inline;opacity:1;fill:#d40000"
         d="m 1683.3163,248.68328 c -5.1862,-8.5648 -10.6425,-16.8891 -17.461,-24 6.8185,-7.1108 12.2748,-15.4351 17.461,-24 5.1862,8.5649 10.6424,16.8892 17.4609,24 -6.8185,7.1109 -12.2747,15.4352 -17.4609,24 z"
         id="path6746-2"
         inkscape:connector-curvature="0" />
      <path
         d="m 1526.7501,7.8496 3.2348,-0.031 c 0.6171,1.9918 1.9825,4.0164 3.8365,4.5782 5.2378,1.2532 8.6076,-1.7286 9.7172,-5.1662 1.3461,-4.1696 -0.03,-10.0246 -3.636,-12.1028 -2.9879,-1.7234 -7.4274,-0.2698 -9.4664,3.4166 l -2.2654,-1.4117 1.2162,-13.7398 h 14.7995 v 3.2477 h -11.9928 l -0.1903,5.724 c 2.5817,-1.8464 6.5493,-1.8268 9.1296,-0.5316 4.8869,2.3742 7.1574,7.7721 6.2086,14.1339 -1.3165,6.3277 -4.2196,9.9133 -10.7676,10.4253 -7.2834,0.067 -9.8548,-5.0339 -9.8239,-8.5422 v 0 z m 0,0"
         id="path21-9-8-2-7"
         style="opacity:1;fill:#d40000;fill-opacity:1"
         inkscape:connector-curvature="0" />
      <path
         d="m 1736.3475,243.0718 -3.2348,0.031 c -0.6171,-1.9919 -1.9825,-4.0164 -3.8365,-4.5782 -5.2378,-1.2533 -8.6076,1.7286 -9.7172,5.1661 -1.3461,4.1697 0.03,10.0246 3.636,12.1029 2.9879,1.7234 7.4274,0.2698 9.4664,-3.4166 l 2.2654,1.4117 -1.2162,13.7398 h -14.7995 v -3.2477 h 11.9928 l 0.1903,-5.7241 c -2.5817,1.8465 -6.5493,1.8269 -9.1296,0.5317 -4.8869,-2.3742 -7.1574,-7.7722 -6.2086,-14.1339 1.3165,-6.3278 4.2196,-9.9133 10.7676,-10.4254 7.2834,-0.067 9.8548,5.0339 9.8239,8.5422 v 0 z m 0,0"
         id="path21-3-0-8-6"
         style="opacity:1;fill:#d40000;fill-opacity:1"
         inkscape:connector-curvature="0" />
    </g>
  </g>
</svg>
