<?xml version="1.0" encoding="UTF-8" standalone="no"?>
<svg
   xmlns:dc="http://purl.org/dc/elements/1.1/"
   xmlns:cc="http://creativecommons.org/ns#"
   xmlns:rdf="http://www.w3.org/1999/02/22-rdf-syntax-ns#"
   xmlns:svg="http://www.w3.org/2000/svg"
   xmlns="http://www.w3.org/2000/svg"
   xmlns:sodipodi="http://sodipodi.sourceforge.net/DTD/sodipodi-0.dtd"
   xmlns:inkscape="http://www.inkscape.org/namespaces/inkscape"
   id="svg1764"
   version="1.1"
   viewBox="0 0 210 297"
   height="297mm"
   width="210mm"
   sodipodi:docname="7 of hearts.svg"
   inkscape:version="0.92.3 (2405546, 2018-03-11)">
  <sodipodi:namedview
     pagecolor="#ffffff"
     bordercolor="#666666"
     borderopacity="1"
     objecttolerance="10"
     gridtolerance="10"
     guidetolerance="10"
     inkscape:pageopacity="0"
     inkscape:pageshadow="2"
     inkscape:window-width="1366"
     inkscape:window-height="705"
     id="namedview21"
     showgrid="false"
     inkscape:zoom="0.47"
     inkscape:cx="396.85039"
     inkscape:cy="561.25984"
     inkscape:window-x="-8"
     inkscape:window-y="-8"
     inkscape:window-maximized="1"
     inkscape:current-layer="svg1764" />
  <defs
     id="defs1758" />
  <metadata
     id="metadata1761">
    <rdf:RDF>
      <cc:Work
         rdf:about="">
        <dc:format>image/svg+xml</dc:format>
        <dc:type
           rdf:resource="http://purl.org/dc/dcmitype/StillImage" />
        <dc:title />
      </cc:Work>
    </rdf:RDF>
  </metadata>
  <g
     id="layer1"
     transform="matrix(3.3597884,0,0,3.3975024,-234.50522,-304.21637)">
    <g
       transform="matrix(0.28096287,0,0,0.2813195,-535.38585,388.42302)"
       id="g11234-8-5"
       style="display:inline">
      <rect
         transform="translate(2267.0769,-853.90551)"
         y="-210.0945"
         x="-112.61419"
         height="311.81104"
         width="223.22835"
         id="rect10074-2-8"
         style="display:inline;opacity:1;fill:#ffffff;fill-opacity:1;stroke:#000000;stroke-width:1.0005666;stroke-miterlimit:4;stroke-dasharray:none;stroke-opacity:1"
         rx="10.677567"
         ry="10.664032" />
      <g
         transform="translate(2154.4627,-1064)"
         style="display:inline;opacity:1"
         id="g10092-4-5" />
      <g
         style="display:inline;opacity:1"
         id="g10098-2-4"
         transform="translate(2181.0543,-1083.9055)" />
      <path
         transform="translate(2267.0769,-853.90551)"
         style="display:inline;opacity:1;fill:#d40000"
         d="m -95.396892,-140.12123 c 0,0 -2.2247,-3.18978 -5.225698,-6.9401 -2.0077,-2.50969 -3.6127,-5.22722 -3.762,-7.56795 -0.1711,-2.67388 1.449,-5.35641 4.3821,-5.48643 2.931398,-0.12993 4.121198,2.06168 4.605598,3.86859 0.4844,-1.80691 1.6743,-3.99852 4.6056,-3.86859 2.9331,0.13002 4.5533,2.81255 4.3821,5.48643 -0.1492,2.34073 -1.7543,5.05826 -3.7619,7.56795 -3.0011,3.75032 -5.2258,6.9401 -5.2258,6.9401 z"
         id="path10106-2-3"
         inkscape:connector-curvature="0" />
      <path
         transform="translate(2267.0769,-853.90551)"
         style="display:inline;opacity:1;fill:#d40000;stroke:none;stroke-opacity:1"
         d="m 93.397604,31.743411 c 0,0 -2.2247,3.18978 -5.2257,6.9401 -2.0077,2.50969 -3.6127,5.22722 -3.762,7.56795 -0.1711,2.67388 1.449,5.35641 4.3821,5.48643 2.9314,0.12993 4.1212,-2.06168 4.6056,-3.86859 0.4844,1.80691 1.6743,3.99852 4.6056,3.86859 2.933096,-0.13002 4.553296,-2.81255 4.382096,-5.48643 -0.1492,-2.34073 -1.7543,-5.05826 -3.761896,-7.56795 -3.0011,-3.75032 -5.2258,-6.9401 -5.2258,-6.9401 z"
         id="path10108-3-1"
         inkscape:connector-curvature="0" />
      <path
         transform="translate(2267.0769,-853.90551)"
         id="path10110-3-5"
         d="m -1.000051,-79.794356 c 0,0 -4.6663,-7.655471 -10.9609,-16.65626 -4.211,-6.023264 -7.5776,-12.545334 -7.8906,-18.163094 -0.359,-6.41731 3.0392,-12.85538 9.1914,-13.16741 6.1485,-0.31185 8.6442,4.94803 9.6601,9.28461 1.01600005,-4.33658 3.5117,-9.59646 9.6602,-9.28461 6.1522,0.31203 9.5504,6.7501 9.1914,13.16741 -0.313,5.61776 -3.6796,12.13983 -7.8906,18.163094 -6.2946,9.000789 -10.961,16.65626 -10.961,16.65626 z"
         style="display:inline;opacity:1;fill:#d40000"
         inkscape:connector-curvature="0" />
      <path
         transform="translate(2267.0769,-853.90551)"
         id="path10114-8-3"
         d="m -52.766444,-129.39963 c 0,0 -4.6663,-7.65547 -10.9609,-16.65626 -4.211,-6.02326 -7.5776,-12.54533 -7.8906,-18.16309 -0.359,-6.41731 3.0392,-12.85538 9.1914,-13.16741 6.1485,-0.31185 8.6442,4.94803 9.6601,9.28461 1.016,-4.33658 3.5117,-9.59646 9.6602,-9.28461 6.1522,0.31203 9.5504,6.7501 9.1914,13.16741 -0.313,5.61776 -3.6796,12.13983 -7.8906,18.16309 -6.2946,9.00079 -10.961,16.65626 -10.961,16.65626 z"
         style="display:inline;opacity:1;fill:#d40000;stroke:none;stroke-opacity:1"
         inkscape:connector-curvature="0" />
      <path
         transform="translate(2267.0769,-853.90551)"
         id="path10116-2-5"
         d="m 50.766354,-30.188979 c 0,0 -4.6663,-7.65547 -10.9609,-16.65626 -4.211,-6.02326 -7.5776,-12.54533 -7.8906,-18.16309 -0.359,-6.41731 3.0392,-12.85538 9.1914,-13.16741 6.1485,-0.31185 8.6442,4.94803 9.6601,9.28461 1.016,-4.33658 3.5117,-9.59646 9.6602,-9.28461 6.1522,0.31203 9.5504,6.7501 9.1914,13.16741 -0.313,5.61776 -3.6796,12.13983 -7.8906,18.16309 -6.2946,9.00079 -10.961,16.65626 -10.961,16.65626 z"
         style="display:inline;opacity:1;fill:#d40000"
         inkscape:connector-curvature="0" />
      <path
         transform="translate(2267.0769,-853.90551)"
         id="path10120-6-5"
         d="m 50.766354,-129.39963 c 0,0 -4.6663,-7.65547 -10.9609,-16.65626 -4.211,-6.02326 -7.5776,-12.54533 -7.8906,-18.16309 -0.359,-6.41731 3.0392,-12.85538 9.1914,-13.16741 6.1485,-0.31185 8.6442,4.94803 9.6601,9.28461 1.016,-4.33658 3.5117,-9.59646 9.6602,-9.28461 6.1522,0.31203 9.5504,6.7501 9.1914,13.16741 -0.313,5.61776 -3.6796,12.13983 -7.8906,18.16309 -6.2946,9.00079 -10.961,16.65626 -10.961,16.65626 z"
         style="display:inline;opacity:1;fill:#d40000"
         inkscape:connector-curvature="0" />
      <path
         transform="translate(2267.0769,-853.90551)"
         id="path10124-1-1"
         d="m -52.766444,-30.188979 c 0,0 -4.6663,-7.65547 -10.9609,-16.65625 -4.211,-6.02326 -7.5776,-12.54533 -7.8906,-18.16309 -0.359,-6.41731 3.0392,-12.85538 9.1914,-13.16741 6.1485,-0.31185 8.6442,4.94803 9.6601,9.28461 1.016,-4.33658 3.5117,-9.59646 9.6602,-9.28461 6.1522,0.31203 9.5504,6.7501 9.1914,13.16741 -0.313,5.61776 -3.6796,12.13983 -7.8906,18.16309 -6.2946,9.00078 -10.961,16.65625 -10.961,16.65625 z"
         style="display:inline;opacity:1;fill:#d40000"
         inkscape:connector-curvature="0" />
      <path
         transform="translate(2267.0769,-853.90551)"
         style="display:inline;opacity:1;fill:#d40000;stroke:none;stroke-opacity:1"
         d="m 50.766354,21.021681 c 0,0 -4.6663,7.65547 -10.9609,16.65626 -4.211,6.02326 -7.5776,12.54533 -7.8906,18.16309 -0.359,6.41731 3.0392,12.85538 9.1914,13.16741 6.1485,0.31185 8.6442,-4.94803 9.6601,-9.28461 1.016,4.33658 3.5117,9.59646 9.6602,9.28461 6.1522,-0.31203 9.5504,-6.7501 9.1914,-13.16741 -0.313,-5.61776 -3.6796,-12.13983 -7.8906,-18.16309 -6.2946,-9.00079 -10.961,-16.65626 -10.961,-16.65626 z"
         id="path10134-7-3"
         inkscape:connector-curvature="0" />
      <path
         transform="translate(2267.0769,-853.90551)"
         id="path10136-5-7"
         d="m -52.766444,21.021681 c 0,0 -4.6663,7.65547 -10.9609,16.65626 -4.211,6.02326 -7.5776,12.54533 -7.8906,18.16309 -0.359,6.41731 3.0392,12.85538 9.1914,13.16741 6.1485,0.31185 8.6442,-4.94803 9.6601,-9.28461 1.016,4.33658 3.5117,9.59646 9.6602,9.28461 6.1522,-0.31203 9.5504,-6.7501 9.1914,-13.16741 -0.313,-5.61776 -3.6796,-12.13983 -7.8906,-18.16309 -6.2946,-9.00079 -10.961,-16.65626 -10.961,-16.65626 z"
         style="display:inline;opacity:1;fill:#d40000;stroke:none;stroke-opacity:1"
         inkscape:connector-curvature="0" />
      <path
         d="m 2166.6059,-1017.1659 c 2.1703,-11.4733 4.4806,-20.0867 10.5465,-29.4347 h -12.3297 v 4.0238 h -3.2734 v -7.5855 h 18.0343 l 2.2243,3.5617 c -6.4426,7.0329 -12.3388,29.7673 -11.2948,29.4347 z m 0,0"
         id="path25-43-2-3-9"
         style="opacity:1;fill:#d40000;fill-opacity:1;stroke-width:1;stroke-miterlimit:4;stroke-dasharray:none"
         inkscape:connector-curvature="0" />
      <path
         d="m 2365.5458,-799.02298 c -2.1703,11.4732 -4.4806,20.0867 -10.5465,29.4347 h 12.3297 v -4.0239 h 3.2734 v 7.5856 h -18.0343 l -2.2243,-3.5617 c 6.4426,-7.0329 12.3388,-29.7673 11.2948,-29.4347 z m 0,0"
         id="path25-7-0-2-8-2"
         style="opacity:1;fill:#d40000;fill-opacity:1"
         inkscape:connector-curvature="0" />
    </g>
  </g>
</svg>
