<?xml version="1.0" encoding="UTF-8" standalone="no"?>
<svg
   xmlns:dc="http://purl.org/dc/elements/1.1/"
   xmlns:cc="http://creativecommons.org/ns#"
   xmlns:rdf="http://www.w3.org/1999/02/22-rdf-syntax-ns#"
   xmlns:svg="http://www.w3.org/2000/svg"
   xmlns="http://www.w3.org/2000/svg"
   xmlns:sodipodi="http://sodipodi.sourceforge.net/DTD/sodipodi-0.dtd"
   xmlns:inkscape="http://www.inkscape.org/namespaces/inkscape"
   id="svg1414"
   version="1.1"
   viewBox="0 0 210 297"
   height="297mm"
   width="210mm"
   sodipodi:docname="Ace of hearts.svg"
   inkscape:version="0.92.3 (2405546, 2018-03-11)">
  <sodipodi:namedview
     pagecolor="#ffffff"
     bordercolor="#666666"
     borderopacity="1"
     objecttolerance="10"
     gridtolerance="10"
     guidetolerance="10"
     inkscape:pageopacity="0"
     inkscape:pageshadow="2"
     inkscape:window-width="1366"
     inkscape:window-height="705"
     id="namedview16"
     showgrid="false"
     inkscape:zoom="0.45014485"
     inkscape:cx="396.85039"
     inkscape:cy="561.25984"
     inkscape:window-x="-8"
     inkscape:window-y="-8"
     inkscape:window-maximized="1"
     inkscape:current-layer="svg1414" />
  <defs
     id="defs1408" />
  <metadata
     id="metadata1411">
    <rdf:RDF>
      <cc:Work
         rdf:about="">
        <dc:format>image/svg+xml</dc:format>
        <dc:type
           rdf:resource="http://purl.org/dc/dcmitype/StillImage" />
        <dc:title />
      </cc:Work>
    </rdf:RDF>
  </metadata>
  <g
     id="layer1"
     transform="matrix(3.3597881,0,0,3.3974897,-285.30201,-309.3508)">
    <g
       transform="matrix(0.28096287,0,0,0.2813195,-38.393874,389.93493)"
       id="g11425-5-5"
       style="display:inline">
      <g
         style="display:inline;opacity:1"
         id="g9664-0-2"
         transform="translate(178.95278,-1434.2756)">
        <rect
           ry="10.664032"
           rx="10.677567"
           style="display:inline;fill:#ffffff;fill-opacity:1;stroke:#000000;stroke-width:1.0005666;stroke-miterlimit:4;stroke-dasharray:none;stroke-opacity:1"
           id="rect9666-2-2"
           width="223.22835"
           height="311.81104"
           x="260.43304"
           y="370.27557" />
      </g>
      <g
         transform="translate(439.38585,-1064)"
         style="display:inline;opacity:1"
         id="g9684-3-0" />
      <g
         style="display:inline;opacity:1"
         id="g9690-5-6"
         transform="translate(465.9774,-1083.9055)" />
      <path
         transform="translate(552.00001,-853.90551)"
         style="display:inline;opacity:1;fill:#d40000"
         d="m -95.396892,-140.12123 c 0,0 -2.2247,-3.18978 -5.225698,-6.9401 -2.0077,-2.50969 -3.6127,-5.22722 -3.762,-7.56795 -0.1711,-2.67388 1.449,-5.35641 4.3821,-5.48643 2.931398,-0.12993 4.121198,2.06168 4.605598,3.86859 0.4844,-1.80691 1.6743,-3.99852 4.6056,-3.86859 2.9331,0.13002 4.5533,2.81255 4.3821,5.48643 -0.1492,2.34073 -1.7543,5.05826 -3.7619,7.56795 -3.0011,3.75032 -5.2258,6.9401 -5.2258,6.9401 z"
         id="path9698-0-0"
         inkscape:connector-curvature="0" />
      <path
         transform="translate(552.00001,-853.90551)"
         style="display:inline;opacity:1;fill:#d40000"
         d="m 93.397604,31.743411 c 0,0 -2.2247,3.18978 -5.2257,6.9401 -2.0077,2.50969 -3.6127,5.22722 -3.762,7.56795 -0.1711,2.67388 1.449,5.35641 4.3821,5.48643 2.9314,0.12993 4.1212,-2.06168 4.6056,-3.86859 0.4844,1.80691 1.6743,3.99852 4.6056,3.86859 2.933096,-0.13002 4.553296,-2.81255 4.382096,-5.48643 -0.1492,-2.34073 -1.7543,-5.05826 -3.761896,-7.56795 -3.0011,-3.75032 -5.2258,-6.9401 -5.2258,-6.9401 z"
         id="path9700-3-2"
         inkscape:connector-curvature="0" />
      <path
         transform="translate(552.00001,-853.90551)"
         style="display:inline;opacity:1;fill:#d40000"
         d="m -1.000056,-30.188979 c 0,0 -4.6663,-7.65547 -10.9609,-16.65626 -4.210998,-6.02326 -7.577598,-12.54533 -7.890598,-18.16309 -0.359,-6.41731 3.0392,-12.85538 9.191398,-13.16741 6.1485,-0.31185 8.6442,4.94803 9.6601,9.28461 1.01600005,-4.33658 3.5117,-9.59646 9.6602,-9.28461 6.1522,0.31203 9.5504,6.7501 9.1914,13.16741 -0.313,5.61776 -3.6796,12.13983 -7.8906,18.16309 -6.2946,9.00079 -10.961,16.65626 -10.961,16.65626 z"
         id="path9714-6-6"
         inkscape:connector-curvature="0" />
      <path
         d="m 446.50961,-1017.1623 v -2.8217 h 2.6923 l 5.7354,-30.1783 h 3.2644 l 6.3179,30.1783 h 2.1741 v 2.8217 h -7.4082 v -2.8217 h 1.9993 l -0.7984,-4.6247 h -7.4737 l -0.5773,4.6247 h 1.9992 v 2.8217 z m 13.3391,-10.7407 -3.249,-16.1524 -3.0432,16.1524 z m 0,0"
         id="path41-87-8-3-9"
         style="opacity:1;fill:#d40000;fill-opacity:1;stroke-width:1;stroke-miterlimit:4;stroke-dasharray:none"
         inkscape:connector-curvature="0" />
      <path
         d="m 635.30412,-799.02659 v 2.8217 h 2.6923 l 5.7354,30.1783 h 3.2644 l 6.3179,-30.1783 h 2.1741 v -2.8217 h -7.4082 v 2.8217 h 1.9993 l -0.7984,4.6246 h -7.4737 l -0.5773,-4.6246 h 1.9992 v -2.8217 z m 13.3391,10.7407 -3.249,16.1524 -3.0432,-16.1524 z m 0,0"
         id="path41-8-5-1-8-7"
         style="opacity:1;fill:#d40000;fill-opacity:1"
         inkscape:connector-curvature="0" />
    </g>
  </g>
</svg>
