<?xml version="1.0" encoding="UTF-8" standalone="no"?>
<!-- Created with Inkscape (http://www.inkscape.org/) -->

<svg
   xmlns:dc="http://purl.org/dc/elements/1.1/"
   xmlns:cc="http://creativecommons.org/ns#"
   xmlns:rdf="http://www.w3.org/1999/02/22-rdf-syntax-ns#"
   xmlns:svg="http://www.w3.org/2000/svg"
   xmlns="http://www.w3.org/2000/svg"
   xmlns:sodipodi="http://sodipodi.sourceforge.net/DTD/sodipodi-0.dtd"
   xmlns:inkscape="http://www.inkscape.org/namespaces/inkscape"
   width="210mm"
   height="297mm"
   viewBox="0 0 210 297"
   version="1.1"
   id="svg8"
   sodipodi:docname="Card back.svg"
   inkscape:version="0.92.3 (2405546, 2018-03-11)">
  <defs
     id="defs2" />
  <sodipodi:namedview
     id="base"
     pagecolor="#ffffff"
     bordercolor="#666666"
     borderopacity="1.0"
     inkscape:pageopacity="0.0"
     inkscape:pageshadow="2"
     inkscape:zoom="0.62"
     inkscape:cx="400"
     inkscape:cy="308.98722"
     inkscape:document-units="mm"
     inkscape:current-layer="layer1"
     showgrid="false"
     inkscape:window-width="1366"
     inkscape:window-height="705"
     inkscape:window-x="-8"
     inkscape:window-y="-8"
     inkscape:window-maximized="1" />
  <metadata
     id="metadata5">
    <rdf:RDF>
      <cc:Work
         rdf:about="">
        <dc:format>image/svg+xml</dc:format>
        <dc:type
           rdf:resource="http://purl.org/dc/dcmitype/StillImage" />
      </cc:Work>
    </rdf:RDF>
  </metadata>
  <g
     inkscape:label="Layer 1"
     inkscape:groupmode="layer"
     id="layer1">
    <g
       transform="matrix(1.2561007,0,0,1.2475784,2.8540229e-4,-3.0028036)"
       style="fill:none;fill-rule:nonzero;stroke:#17067a;stroke-width:1.31759644;stroke-linecap:round;stroke-linejoin:round;stroke-miterlimit:4"
       id="Layer_x0020_1">
		<path
   id="path5"
   d="m 166.93359,235.74316 c 0,3.77442 -3.08593,6.86914 -6.87011,6.86914 H 7.215332 c -3.7749023,0 -6.8608398,-3.09472 -6.8608398,-6.86914 V 7.3178711 c 0,-3.7797852 3.0859375,-6.8701172 6.8608398,-6.8701172 H 160.06348 c 3.78418,0 6.87011,3.090332 6.87011,6.8701172 z"
   style="fill:#ffffff;stroke:#000000;stroke-width:0.50045443;stroke-linecap:butt;stroke-linejoin:miter"
   inkscape:connector-curvature="0" />

		<path
   id="path7"
   d="m 7.6469727,1.8691406 c -3.2133789,0 -5.8012695,2.5161133 -5.8012695,5.6430664 V 235.43555 c 0,3.12597 2.5878906,5.6416 5.8012695,5.6416 H 159.7207 c 3.21485,0 5.80078,-2.51563 5.80078,-5.6416 V 7.512207 c 0,-3.1269531 -2.58593,-5.6430664 -5.80078,-5.6430664 z"
   style="fill:#ffffff;fill-rule:evenodd;stroke:none"
   inkscape:connector-curvature="0" />

		<path
   id="path9"
   d="m 7.6469727,1.8691406 c -3.2133789,0 -5.8012695,2.5161133 -5.8012695,5.6430664 V 235.43555 c 0,3.12597 2.5878906,5.6416 5.8012695,5.6416 H 159.7207 c 3.21485,0 5.80078,-2.51563 5.80078,-5.6416 V 7.512207 c 0,-3.1269531 -2.58593,-5.6430664 -5.80078,-5.6430664 z"
   style="stroke-width:2.8515892;stroke-linecap:butt;stroke-linejoin:miter;stroke-miterlimit:10"
   inkscape:connector-curvature="0" />

		<path
   id="path11"
   d="m 9.2890625,7.4052734 c -0.8095703,0 -1.4604492,0.6337891 -1.4604492,1.4204102 V 234.12207 c 0,0.78613 0.6508789,1.41992 1.4604492,1.41992 H 157.70898 c 0.80957,0 1.46192,-0.63379 1.46192,-1.41992 V 8.8256836 c 0,-0.7866211 -0.65235,-1.4204102 -1.46192,-1.4204102 z"
   style="fill:#ffffff;fill-rule:evenodd;stroke:none"
   inkscape:connector-curvature="0" />

		<path
   id="path13"
   d="m 9.2890625,7.4052734 c -0.8095703,0 -1.4604492,0.6337891 -1.4604492,1.4204102 V 234.12207 c 0,0.78613 0.6508789,1.41992 1.4604492,1.41992 H 157.70898 c 0.80957,0 1.46192,-0.63379 1.46192,-1.41992 V 8.8256836 c 0,-0.7866211 -0.65235,-1.4204102 -1.46192,-1.4204102 z"
   style="stroke-width:2.67783141;stroke-linecap:butt;stroke-linejoin:miter;stroke-miterlimit:10"
   inkscape:connector-curvature="0" />

		<path
   id="path15"
   d="m 38.657227,37.113769 c -0.390137,0 -0.704102,0.304688 -0.704102,0.685059 V 205.86816 c 0,0.38086 0.313965,0.68555 0.704102,0.68555 H 126.8584 c 0.3916,0 0.7041,-0.30469 0.7041,-0.68555 V 37.798828 c 0,-0.380371 -0.3125,-0.685058 -0.7041,-0.685058 H 38.657227 Z"
   style="fill:#313390;fill-rule:evenodd;stroke:none"
   inkscape:connector-curvature="0" />

		<path
   id="path17"
   d="m 38.657227,37.113769 c -0.390137,0 -0.704102,0.304688 -0.704102,0.685059 V 205.86816 c 0,0.38086 0.313965,0.68555 0.704102,0.68555 H 126.8584 c 0.3916,0 0.7041,-0.30469 0.7041,-0.68555 V 37.798828 c 0,-0.380371 -0.3125,-0.685058 -0.7041,-0.685058 H 38.657227 Z"
   style="stroke-width:1.64236629;stroke-linecap:butt;stroke-linejoin:miter;stroke-miterlimit:10"
   inkscape:connector-curvature="0" />

		<path
   id="path19"
   d="m 52.620117,43.074219 c -4.619629,0 -8.339844,3.618652 -8.339844,8.112304 V 191.76074 c 0,4.49414 3.720215,8.11231 8.339844,8.11231 h 59.907223 c 4.62012,0 8.33985,-3.61817 8.33985,-8.11231 V 51.186523 c 0,-4.493652 -3.71973,-8.112304 -8.33985,-8.112304 z"
   style="fill:#ffffff;fill-rule:evenodd;stroke:none"
   inkscape:connector-curvature="0" />

		<path
   id="path21"
   d="m 52.620117,43.074219 c -4.619629,0 -8.339844,3.618652 -8.339844,8.112304 V 191.76074 c 0,4.49414 3.720215,8.11231 8.339844,8.11231 h 59.907223 c 4.62012,0 8.33985,-3.61817 8.33985,-8.11231 V 51.186523 c 0,-4.493652 -3.71973,-8.112304 -8.33985,-8.112304 z"
   style="stroke-width:2.06527543;stroke-linecap:butt;stroke-miterlimit:10"
   inkscape:connector-curvature="0" />

		<path
   id="path23"
   d="m 53.546875,49.536621 c -1.553711,0 -2.805176,1.217285 -2.805176,2.729004 V 190.68066 c 0,1.5127 1.251465,2.7295 2.805176,2.7295 h 57.681645 c 1.55566,0 2.80859,-1.2168 2.80859,-2.7295 V 52.265625 c 0,-1.511719 -1.25293,-2.729004 -2.80859,-2.729004 z"
   style="fill:#313390;fill-rule:evenodd;stroke:none"
   inkscape:connector-curvature="0" />

		<path
   id="path25"
   d="m 53.546875,49.536621 c -1.553711,0 -2.805176,1.217285 -2.805176,2.729004 V 190.68066 c 0,1.5127 1.251465,2.7295 2.805176,2.7295 h 57.681645 c 1.55566,0 2.80859,-1.2168 2.80859,-2.7295 V 52.265625 c 0,-1.511719 -1.25293,-2.729004 -2.80859,-2.729004 z"
   style="stroke-width:1.79848301;stroke-linecap:butt;stroke-miterlimit:10"
   inkscape:connector-curvature="0" />

		<path
   id="path27"
   d="M 9.4145508,9.0317383 H 16.077149 L 9.4785157,15.43457 9.4145509,9.0317383 Z"
   style="fill:#17067a;fill-rule:evenodd;stroke:none"
   inkscape:connector-curvature="0" />

		<path
   id="path29"
   d="M 9.4145508,9.0317383 H 16.077149 L 9.4785157,15.43457 9.4145509,9.0317383 Z"
   style="stroke-width:0.86410964;stroke-linecap:butt;stroke-linejoin:miter;stroke-miterlimit:10"
   inkscape:connector-curvature="0" />

		<path
   id="path31"
   d="m 157.48242,9.1147461 h -6.66211 l 6.59766,6.4028319 0.0644,-6.4028319 z"
   style="fill:#17067a;fill-rule:evenodd;stroke:none"
   inkscape:connector-curvature="0" />

		<path
   id="path33"
   d="m 157.48242,9.1147461 h -6.66211 l 6.59766,6.4028319 0.0644,-6.4028319 z"
   style="stroke-width:0.86410964;stroke-linecap:butt;stroke-linejoin:miter;stroke-miterlimit:10"
   inkscape:connector-curvature="0" />

		<path
   id="path35"
   d="m 157.60254,234.11816 h -6.66309 l 6.59961,-6.40136 0.0635,6.40136 z"
   style="fill:#17067a;fill-rule:evenodd;stroke:none"
   inkscape:connector-curvature="0" />

		<path
   id="path37"
   d="m 157.60254,234.11816 h -6.66309 l 6.59961,-6.40136 0.0635,6.40136 z"
   style="stroke-width:0.86410964;stroke-linecap:butt;stroke-linejoin:miter;stroke-miterlimit:10"
   inkscape:connector-curvature="0" />

		<path
   id="path39"
   d="M 9.4091797,234.08496 H 16.071777 L 9.4741211,227.68262 Z"
   style="fill:#17067a;fill-rule:evenodd;stroke:none"
   inkscape:connector-curvature="0" />

		<path
   id="path41"
   d="M 9.4091797,234.08496 H 16.071777 L 9.4741211,227.68262 Z"
   style="stroke-width:0.86410964;stroke-linecap:butt;stroke-linejoin:miter;stroke-miterlimit:10"
   inkscape:connector-curvature="0" />

		<path
   id="path43"
   d="m 11.96582,130.63184 v 6.13379 L 34.394043,125.2959 v -6.28467 z"
   style="fill:#313390;fill-rule:evenodd;stroke:none"
   inkscape:connector-curvature="0" />

		<path
   id="path45"
   d="m 11.96582,130.63184 v 6.13379 L 34.394043,125.2959 v -6.28467 z"
   style="stroke-width:1.31753135;stroke-miterlimit:10"
   inkscape:connector-curvature="0" />

		<path
   id="path47"
   d="m 12.080078,142.23145 v 6.13378 l 22.427735,-11.47168 v -6.2832 z"
   style="fill:#313390;fill-rule:evenodd;stroke:none"
   inkscape:connector-curvature="0" />

		<path
   id="path49"
   d="m 12.080078,142.23145 v 6.13378 l 22.427735,-11.47168 v -6.2832 z"
   style="stroke-width:1.31753135;stroke-miterlimit:10"
   inkscape:connector-curvature="0" />

		<path
   id="path51"
   d="m 11.854492,136.7959 v -6.13379 l 22.427246,11.4707 v 6.28418 z"
   style="fill:#ffffff;fill-rule:evenodd;stroke:none"
   inkscape:connector-curvature="0" />

		<path
   id="path53"
   d="m 11.854492,136.7959 v -6.13379 l 22.427246,11.4707 v 6.28418 z"
   style="stroke-width:1.31753135;stroke-miterlimit:10"
   inkscape:connector-curvature="0" />

		<path
   id="path55"
   d="m 12.129883,118.87305 v 6.13379 l 22.427734,-11.47217 v -6.28272 z"
   style="fill:#313390;fill-rule:evenodd;stroke:none"
   inkscape:connector-curvature="0" />

		<path
   id="path57"
   d="m 12.129883,118.87305 v 6.13379 l 22.427734,-11.47217 v -6.28272 z"
   style="stroke-width:1.31753135;stroke-miterlimit:10"
   inkscape:connector-curvature="0" />

		<path
   id="path59"
   d="m 12.022949,125.25879 v -6.13281 l 22.428711,11.4707 v 6.28418 z"
   style="fill:#ffffff;fill-rule:evenodd;stroke:none"
   inkscape:connector-curvature="0" />

		<path
   id="path61"
   d="m 12.022949,125.25879 v -6.13281 l 22.428711,11.4707 v 6.28418 z"
   style="stroke-width:1.31753135;stroke-miterlimit:10"
   inkscape:connector-curvature="0" />

		<path
   id="path63"
   d="m 12.016113,107.27344 v 6.13379 l 22.427735,-11.47022 v -6.284666 z"
   style="fill:#313390;fill-rule:evenodd;stroke:none"
   inkscape:connector-curvature="0" />

		<path
   id="path65"
   d="m 12.016113,107.27344 v 6.13379 l 22.427735,-11.47022 v -6.284666 z"
   style="stroke-width:1.31753135;stroke-miterlimit:10"
   inkscape:connector-curvature="0" />

		<path
   id="path67"
   d="m 11.903809,113.43701 v -6.1333 l 22.428222,11.47168 v 6.28223 z"
   style="fill:#ffffff;fill-rule:evenodd;stroke:none"
   inkscape:connector-curvature="0" />

		<path
   id="path69"
   d="m 11.903809,113.43701 v -6.1333 l 22.428222,11.47168 v 6.28223 z"
   style="stroke-width:1.31753135;stroke-miterlimit:10"
   inkscape:connector-curvature="0" />

		<path
   id="path71"
   d="m 12.073242,101.90039 v -6.1333 l 22.427735,11.47168 v 6.28271 z"
   style="fill:#ffffff;fill-rule:evenodd;stroke:none"
   inkscape:connector-curvature="0" />

		<path
   id="path73"
   d="m 12.073242,101.90039 v -6.1333 l 22.427735,11.47168 v 6.28271 z"
   style="stroke-width:1.31753135;stroke-miterlimit:10"
   inkscape:connector-curvature="0" />

		<path
   id="path75"
   d="m 12.11084,153.93652 v 6.13282 l 22.427734,-11.46973 v -6.28418 z"
   style="fill:#313390;fill-rule:evenodd;stroke:none"
   inkscape:connector-curvature="0" />

		<path
   id="path77"
   d="m 12.11084,153.93652 v 6.13282 l 22.427734,-11.46973 v -6.28418 z"
   style="stroke-width:1.31753135;stroke-miterlimit:10"
   inkscape:connector-curvature="0" />

		<path
   id="path79"
   d="m 11.884766,148.5 v -6.13281 l 22.427734,11.4707 v 6.28516 z"
   style="fill:#ffffff;fill-rule:evenodd;stroke:none"
   inkscape:connector-curvature="0" />

		<path
   id="path81"
   d="m 11.884766,148.5 v -6.13281 l 22.427734,11.4707 v 6.28516 z"
   style="stroke-width:1.31753135;stroke-miterlimit:10"
   inkscape:connector-curvature="0" />

		<path
   id="path83"
   d="m 11.883301,72.185059 v 6.1333 L 34.311035,66.847168 v -6.283203 z"
   style="fill:#313390;fill-rule:evenodd;stroke:none"
   inkscape:connector-curvature="0" />

		<path
   id="path85"
   d="m 11.883301,72.185059 v 6.1333 L 34.311035,66.847168 v -6.283203 z"
   style="stroke-width:1.31753135;stroke-miterlimit:10"
   inkscape:connector-curvature="0" />

		<path
   id="path87"
   d="m 11.99707,83.783203 v 6.135254 l 22.428711,-11.47168 v -6.284668 z"
   style="fill:#313390;fill-rule:evenodd;stroke:none"
   inkscape:connector-curvature="0" />

		<path
   id="path89"
   d="m 11.99707,83.783203 v 6.135254 l 22.428711,-11.47168 v -6.284668 z"
   style="stroke-width:1.31753135;stroke-miterlimit:10"
   inkscape:connector-curvature="0" />

		<path
   id="path91"
   d="m 11.771484,78.348633 v -6.133789 l 22.428711,11.470214 v 6.284668 z"
   style="fill:#ffffff;fill-rule:evenodd;stroke:none"
   inkscape:connector-curvature="0" />

		<path
   id="path93"
   d="m 11.771484,78.348633 v -6.133789 l 22.428711,11.470214 v 6.284668 z"
   style="stroke-width:1.31753135;stroke-miterlimit:10"
   inkscape:connector-curvature="0" />

		<path
   id="path95"
   d="M 12.047852,60.424316 V 66.55957 L 34.475586,55.087402 v -6.284179 z"
   style="fill:#313390;fill-rule:evenodd;stroke:none"
   inkscape:connector-curvature="0" />

		<path
   id="path97"
   d="M 12.047852,60.424316 V 66.55957 L 34.475586,55.087402 v -6.284179 z"
   style="stroke-width:1.31753135;stroke-miterlimit:10"
   inkscape:connector-curvature="0" />

		<path
   id="path99"
   d="m 11.939941,66.812012 v -6.133301 l 22.428711,11.470215 v 6.284179 z"
   style="fill:#ffffff;fill-rule:evenodd;stroke:none"
   inkscape:connector-curvature="0" />

		<path
   id="path101"
   d="m 11.939941,66.812012 v -6.133301 l 22.428711,11.470215 v 6.284179 z"
   style="stroke-width:1.31753135;stroke-miterlimit:10"
   inkscape:connector-curvature="0" />

		<path
   id="path103"
   d="m 11.933106,48.826172 v 6.133301 L 34.360352,43.488281 v -6.283203 z"
   style="fill:#313390;fill-rule:evenodd;stroke:none"
   inkscape:connector-curvature="0" />

		<path
   id="path105"
   d="m 11.933106,48.826172 v 6.133301 L 34.360352,43.488281 v -6.283203 z"
   style="stroke-width:1.31753135;stroke-miterlimit:10"
   inkscape:connector-curvature="0" />

		<path
   id="path107"
   d="M 11.821777,54.989746 V 48.856445 L 34.25,60.326172 v 6.284668 z"
   style="fill:#ffffff;fill-rule:evenodd;stroke:none"
   inkscape:connector-curvature="0" />

		<path
   id="path109"
   d="M 11.821777,54.989746 V 48.856445 L 34.25,60.326172 v 6.284668 z"
   style="stroke-width:1.31753135;stroke-miterlimit:10"
   inkscape:connector-curvature="0" />

		<path
   id="path111"
   d="m 11.989746,43.453125 v -6.132812 l 22.428711,11.469726 v 6.28418 z"
   style="fill:#ffffff;fill-rule:evenodd;stroke:none"
   inkscape:connector-curvature="0" />

		<path
   id="path113"
   d="m 11.989746,43.453125 v -6.132812 l 22.428711,11.469726 v 6.28418 z"
   style="stroke-width:1.31753135;stroke-miterlimit:10"
   inkscape:connector-curvature="0" />

		<path
   id="path115"
   d="m 12.028809,95.489258 v 6.133302 L 34.457031,90.151367 v -6.283203 z"
   style="fill:#313390;fill-rule:evenodd;stroke:none"
   inkscape:connector-curvature="0" />

		<path
   id="path117"
   d="m 12.028809,95.489258 v 6.133302 L 34.457031,90.151367 v -6.283203 z"
   style="stroke-width:1.31753135;stroke-miterlimit:10"
   inkscape:connector-curvature="0" />

		<path
   id="path119"
   d="m 11.802734,90.053223 v -6.133789 l 22.427735,11.471679 v 6.283207 z"
   style="fill:#ffffff;fill-rule:evenodd;stroke:none"
   inkscape:connector-curvature="0" />

		<path
   id="path121"
   d="m 11.802734,90.053223 v -6.133789 l 22.427735,11.471679 v 6.283207 z"
   style="stroke-width:1.31753135;stroke-miterlimit:10"
   inkscape:connector-curvature="0" />

		<path
   id="path123"
   d="m 11.96582,188.91895 v 6.13476 l 22.428223,-11.47266 v -6.28515 z"
   style="fill:#313390;fill-rule:evenodd;stroke:none"
   inkscape:connector-curvature="0" />

		<path
   id="path125"
   d="m 11.96582,188.91895 v 6.13476 l 22.428223,-11.47266 v -6.28515 z"
   style="stroke-width:1.31753135;stroke-miterlimit:10"
   inkscape:connector-curvature="0" />

		<path
   id="path127"
   d="m 12.080078,200.51855 v 6.13282 l 22.427735,-11.47071 v -6.2832 z"
   style="fill:#313390;fill-rule:evenodd;stroke:none"
   inkscape:connector-curvature="0" />

		<path
   id="path129"
   d="m 12.080078,200.51855 v 6.13282 l 22.427735,-11.47071 v -6.2832 z"
   style="stroke-width:1.31753135;stroke-miterlimit:10"
   inkscape:connector-curvature="0" />

		<path
   id="path131"
   d="m 11.854492,195.08398 v -6.13574 l 22.427246,11.47168 v 6.28516 z"
   style="fill:#ffffff;fill-rule:evenodd;stroke:none"
   inkscape:connector-curvature="0" />

		<path
   id="path133"
   d="m 11.854492,195.08398 v -6.13574 l 22.427246,11.47168 v 6.28516 z"
   style="stroke-width:1.31753135;stroke-miterlimit:10"
   inkscape:connector-curvature="0" />

		<path
   id="path135"
   d="m 12.129883,177.15918 v 6.13281 l 22.427734,-11.4707 v -6.2832 z"
   style="fill:#313390;fill-rule:evenodd;stroke:none"
   inkscape:connector-curvature="0" />

		<path
   id="path137"
   d="m 12.129883,177.15918 v 6.13281 l 22.427734,-11.4707 v -6.2832 z"
   style="stroke-width:1.31753135;stroke-miterlimit:10"
   inkscape:connector-curvature="0" />

		<path
   id="path139"
   d="m 12.022949,183.5459 v -6.13477 l 22.428711,11.47266 v 6.28418 z"
   style="fill:#ffffff;fill-rule:evenodd;stroke:none"
   inkscape:connector-curvature="0" />

		<path
   id="path141"
   d="m 12.022949,183.5459 v -6.13477 l 22.428711,11.47266 v 6.28418 z"
   style="stroke-width:1.31753135;stroke-miterlimit:10"
   inkscape:connector-curvature="0" />

		<path
   id="path143"
   d="m 12.016113,165.56152 v 6.13282 l 22.427735,-11.47266 v -6.28125 z"
   style="fill:#313390;fill-rule:evenodd;stroke:none"
   inkscape:connector-curvature="0" />

		<path
   id="path145"
   d="m 12.016113,165.56152 v 6.13282 l 22.427735,-11.47266 v -6.28125 z"
   style="stroke-width:1.31753135;stroke-miterlimit:10"
   inkscape:connector-curvature="0" />

		<path
   id="path147"
   d="m 11.903809,171.72461 v -6.13379 l 22.428222,11.4707 v 6.28321 z"
   style="fill:#ffffff;fill-rule:evenodd;stroke:none"
   inkscape:connector-curvature="0" />

		<path
   id="path149"
   d="m 11.903809,171.72461 v -6.13379 l 22.428222,11.4707 v 6.28321 z"
   style="stroke-width:1.31753135;stroke-miterlimit:10"
   inkscape:connector-curvature="0" />

		<path
   id="path151"
   d="m 12.073242,160.1875 v -6.13379 l 22.427735,11.4707 v 6.28418 z"
   style="fill:#ffffff;fill-rule:evenodd;stroke:none"
   inkscape:connector-curvature="0" />

		<path
   id="path153"
   d="m 12.073242,160.1875 v -6.13379 l 22.427735,11.4707 v 6.28418 z"
   style="stroke-width:1.31753135;stroke-miterlimit:10"
   inkscape:connector-curvature="0" />

		<path
   id="path155"
   d="m 131.93848,113.32178 v -6.13623 l 22.42675,11.47802 v 6.28663 z"
   style="fill:#313390;fill-rule:evenodd;stroke:none"
   inkscape:connector-curvature="0" />

		<path
   id="path157"
   d="m 131.93848,113.32178 v -6.13623 l 22.42675,11.47802 v 6.28663 z"
   style="stroke-width:1.31753135;stroke-miterlimit:10"
   inkscape:connector-curvature="0" />

		<path
   id="path159"
   d="m 132.05078,101.71582 v -6.136718 l 22.42969,11.478518 v 6.28759 z"
   style="fill:#313390;fill-rule:evenodd;stroke:none"
   inkscape:connector-curvature="0" />

		<path
   id="path161"
   d="m 132.05078,101.71582 v -6.136718 l 22.42969,11.478518 v 6.28759 z"
   style="stroke-width:1.31753135;stroke-miterlimit:10"
   inkscape:connector-curvature="0" />

		<path
   id="path163"
   d="m 131.82617,107.15576 v 6.13623 l 22.42676,-11.47656 v -6.288086 z"
   style="fill:#ffffff;fill-rule:evenodd;stroke:none"
   inkscape:connector-curvature="0" />

		<path
   id="path165"
   d="m 131.82617,107.15576 v 6.13623 l 22.42676,-11.47656 v -6.288086 z"
   style="stroke-width:1.31753135;stroke-miterlimit:10"
   inkscape:connector-curvature="0" />

		<path
   id="path167"
   d="m 132.09961,125.08887 v -6.1377 l 22.43066,11.47754 v 6.28906 z"
   style="fill:#313390;fill-rule:evenodd;stroke:none"
   inkscape:connector-curvature="0" />

		<path
   id="path169"
   d="m 132.09961,125.08887 v -6.1377 l 22.43066,11.47754 v 6.28906 z"
   style="stroke-width:1.31753135;stroke-miterlimit:10"
   inkscape:connector-curvature="0" />

		<path
   id="path171"
   d="m 131.99414,118.69873 v 6.13623 l 22.42774,-11.47656 v -6.2876 z"
   style="fill:#ffffff;fill-rule:evenodd;stroke:none"
   inkscape:connector-curvature="0" />

		<path
   id="path173"
   d="m 131.99414,118.69873 v 6.13623 l 22.42774,-11.47656 v -6.2876 z"
   style="stroke-width:1.31753135;stroke-miterlimit:10"
   inkscape:connector-curvature="0" />

		<path
   id="path175"
   d="m 131.98828,136.69434 v -6.13672 l 22.42774,11.47851 v 6.28711 z"
   style="fill:#313390;fill-rule:evenodd;stroke:none"
   inkscape:connector-curvature="0" />

		<path
   id="path177"
   d="m 131.98828,136.69434 v -6.13672 l 22.42774,11.47851 v 6.28711 z"
   style="stroke-width:1.31753135;stroke-miterlimit:10"
   inkscape:connector-curvature="0" />

		<path
   id="path179"
   d="m 131.875,130.52832 v 6.13574 l 22.42969,-11.47558 v -6.28858 z"
   style="fill:#ffffff;fill-rule:evenodd;stroke:none"
   inkscape:connector-curvature="0" />

		<path
   id="path181"
   d="m 131.875,130.52832 v 6.13574 l 22.42969,-11.47558 v -6.28858 z"
   style="stroke-width:1.31753135;stroke-miterlimit:10"
   inkscape:connector-curvature="0" />

		<path
   id="path183"
   d="m 132.04492,142.07129 v 6.13769 l 22.42774,-11.47753 v -6.28907 z"
   style="fill:#ffffff;fill-rule:evenodd;stroke:none"
   inkscape:connector-curvature="0" />

		<path
   id="path185"
   d="m 132.04492,142.07129 v 6.13769 l 22.42774,-11.47753 v -6.28907 z"
   style="stroke-width:1.31753135;stroke-miterlimit:10"
   inkscape:connector-curvature="0" />

		<path
   id="path187"
   d="m 132.08398,90.004883 v -6.138184 l 22.42774,11.478028 v 6.287593 z"
   style="fill:#313390;fill-rule:evenodd;stroke:none"
   inkscape:connector-curvature="0" />

		<path
   id="path189"
   d="m 132.08398,90.004883 v -6.138184 l 22.42774,11.478028 v 6.287593 z"
   style="stroke-width:1.31753135;stroke-miterlimit:10"
   inkscape:connector-curvature="0" />

		<path
   id="path191"
   d="m 131.85547,95.442871 v 6.138179 l 22.42969,-11.478511 v -6.287598 z"
   style="fill:#ffffff;fill-rule:evenodd;stroke:none"
   inkscape:connector-curvature="0" />

		<path
   id="path193"
   d="m 131.85547,95.442871 v 6.138179 l 22.42969,-11.478511 v -6.287598 z"
   style="stroke-width:1.31753135;stroke-miterlimit:10"
   inkscape:connector-curvature="0" />

		<path
   id="path195"
   d="m 131.85352,171.80566 v -6.13867 l 22.42968,11.47852 v 6.28711 z"
   style="fill:#313390;fill-rule:evenodd;stroke:none"
   inkscape:connector-curvature="0" />

		<path
   id="path197"
   d="m 131.85352,171.80566 v -6.13867 l 22.42968,11.47852 v 6.28711 z"
   style="stroke-width:1.31753135;stroke-miterlimit:10"
   inkscape:connector-curvature="0" />

		<path
   id="path199"
   d="m 131.96875,160.2002 v -6.13868 l 22.42773,11.47754 v 6.28809 z"
   style="fill:#313390;fill-rule:evenodd;stroke:none"
   inkscape:connector-curvature="0" />

		<path
   id="path201"
   d="m 131.96875,160.2002 v -6.13868 l 22.42773,11.47754 v 6.28809 z"
   style="stroke-width:1.31753135;stroke-miterlimit:10"
   inkscape:connector-curvature="0" />

		<path
   id="path203"
   d="m 131.74414,165.6377 v 6.13769 l 22.42774,-11.47754 v -6.28808 z"
   style="fill:#ffffff;fill-rule:evenodd;stroke:none"
   inkscape:connector-curvature="0" />

		<path
   id="path205"
   d="m 131.74414,165.6377 v 6.13769 l 22.42774,-11.47754 v -6.28808 z"
   style="stroke-width:1.31753135;stroke-miterlimit:10"
   inkscape:connector-curvature="0" />

		<path
   id="path207"
   d="m 132.01758,183.57129 v -6.13672 l 22.42871,11.47656 v 6.28907 z"
   style="fill:#313390;fill-rule:evenodd;stroke:none"
   inkscape:connector-curvature="0" />

		<path
   id="path209"
   d="m 132.01758,183.57129 v -6.13672 l 22.42871,11.47656 v 6.28907 z"
   style="stroke-width:1.31753135;stroke-miterlimit:10"
   inkscape:connector-curvature="0" />

		<path
   id="path211"
   d="m 131.91211,177.18066 v 6.13672 l 22.42773,-11.47656 v -6.28906 z"
   style="fill:#ffffff;fill-rule:evenodd;stroke:none"
   inkscape:connector-curvature="0" />

		<path
   id="path213"
   d="m 131.91211,177.18066 v 6.13672 l 22.42773,-11.47656 v -6.28906 z"
   style="stroke-width:1.31753135;stroke-miterlimit:10"
   inkscape:connector-curvature="0" />

		<path
   id="path215"
   d="m 131.9043,195.17871 v -6.13672 l 22.42871,11.47656 v 6.28711 z"
   style="fill:#313390;fill-rule:evenodd;stroke:none"
   inkscape:connector-curvature="0" />

		<path
   id="path217"
   d="m 131.9043,195.17871 v -6.13672 l 22.42871,11.47656 v 6.28711 z"
   style="stroke-width:1.31753135;stroke-miterlimit:10"
   inkscape:connector-curvature="0" />

		<path
   id="path219"
   d="m 131.79297,189.01172 v 6.13574 l 22.42773,-11.47851 v -6.28711 z"
   style="fill:#ffffff;fill-rule:evenodd;stroke:none"
   inkscape:connector-curvature="0" />

		<path
   id="path221"
   d="m 131.79297,189.01172 v 6.13574 l 22.42773,-11.47851 v -6.28711 z"
   style="stroke-width:1.31753135;stroke-miterlimit:10"
   inkscape:connector-curvature="0" />

		<path
   id="path223"
   d="m 131.96191,200.55566 v 6.13672 l 22.42774,-11.47754 v -6.28808 z"
   style="fill:#ffffff;fill-rule:evenodd;stroke:none"
   inkscape:connector-curvature="0" />

		<path
   id="path225"
   d="m 131.96191,200.55566 v 6.13672 l 22.42774,-11.47754 v -6.28808 z"
   style="stroke-width:1.31753135;stroke-miterlimit:10"
   inkscape:connector-curvature="0" />

		<path
   id="path227"
   d="m 132,148.48633 v -6.13574 l 22.42773,11.47656 v 6.28711 z"
   style="fill:#313390;fill-rule:evenodd;stroke:none"
   inkscape:connector-curvature="0" />

		<path
   id="path229"
   d="m 132,148.48633 v -6.13574 l 22.42773,11.47656 v 6.28711 z"
   style="stroke-width:1.31753135;stroke-miterlimit:10"
   inkscape:connector-curvature="0" />

		<path
   id="path231"
   d="m 131.77441,153.92676 v 6.13672 l 22.42676,-11.47852 v -6.28711 z"
   style="fill:#ffffff;fill-rule:evenodd;stroke:none"
   inkscape:connector-curvature="0" />

		<path
   id="path233"
   d="m 131.77441,153.92676 v 6.13672 l 22.42676,-11.47852 v -6.28711 z"
   style="stroke-width:1.31753135;stroke-miterlimit:10"
   inkscape:connector-curvature="0" />

		<path
   id="path235"
   d="m 131.93848,55.001465 v -6.138672 l 22.42675,11.478516 v 6.287597 z"
   style="fill:#313390;fill-rule:evenodd;stroke:none"
   inkscape:connector-curvature="0" />

		<path
   id="path237"
   d="m 131.93848,55.001465 v -6.138672 l 22.42675,11.478516 v 6.287597 z"
   style="stroke-width:1.31753135;stroke-miterlimit:10"
   inkscape:connector-curvature="0" />

		<path
   id="path239"
   d="m 132.05078,43.395019 v -6.138183 l 22.42969,11.478027 v 6.288086 z"
   style="fill:#313390;fill-rule:evenodd;stroke:none"
   inkscape:connector-curvature="0" />

		<path
   id="path241"
   d="m 132.05078,43.395019 v -6.138183 l 22.42969,11.478027 v 6.288086 z"
   style="stroke-width:1.31753135;stroke-miterlimit:10"
   inkscape:connector-curvature="0" />

		<path
   id="path243"
   d="m 131.82617,48.833008 v 6.138183 l 22.42676,-11.478027 v -6.288086 z"
   style="fill:#ffffff;fill-rule:evenodd;stroke:none"
   inkscape:connector-curvature="0" />

		<path
   id="path245"
   d="m 131.82617,48.833008 v 6.138183 l 22.42676,-11.478027 v -6.288086 z"
   style="stroke-width:1.31753135;stroke-miterlimit:10"
   inkscape:connector-curvature="0" />

		<path
   id="path247"
   d="m 132.09961,66.76709 v -6.136231 l 22.43066,11.478028 v 6.286132 z"
   style="fill:#313390;fill-rule:evenodd;stroke:none"
   inkscape:connector-curvature="0" />

		<path
   id="path249"
   d="m 132.09961,66.76709 v -6.136231 l 22.43066,11.478028 v 6.286132 z"
   style="stroke-width:1.31753135;stroke-miterlimit:10"
   inkscape:connector-curvature="0" />

		<path
   id="path251"
   d="m 131.99414,60.37793 v 6.136719 l 22.42774,-11.478516 v -6.287598 z"
   style="fill:#ffffff;fill-rule:evenodd;stroke:none"
   inkscape:connector-curvature="0" />

		<path
   id="path253"
   d="m 131.99414,60.37793 v 6.136719 l 22.42774,-11.478516 v -6.287598 z"
   style="stroke-width:1.31753135;stroke-miterlimit:10"
   inkscape:connector-curvature="0" />

		<path
   id="path255"
   d="m 131.98828,78.373535 v -6.136719 l 22.42774,11.476563 v 6.288086 z"
   style="fill:#313390;fill-rule:evenodd;stroke:none"
   inkscape:connector-curvature="0" />

		<path
   id="path257"
   d="m 131.98828,78.373535 v -6.136719 l 22.42774,11.476563 v 6.288086 z"
   style="stroke-width:1.31753135;stroke-miterlimit:10"
   inkscape:connector-curvature="0" />

		<path
   id="path259"
   d="M 131.875,72.206543 V 78.34375 L 154.30469,66.865234 V 60.577149 Z"
   style="fill:#ffffff;fill-rule:evenodd;stroke:none"
   inkscape:connector-curvature="0" />

		<path
   id="path261"
   d="M 131.875,72.206543 V 78.34375 L 154.30469,66.865234 V 60.577149 Z"
   style="stroke-width:1.31753135;stroke-miterlimit:10"
   inkscape:connector-curvature="0" />

		<path
   id="path263"
   d="m 132.04492,83.75 v 6.137207 l 22.42774,-11.477051 v -6.287598 z"
   style="fill:#ffffff;fill-rule:evenodd;stroke:none"
   inkscape:connector-curvature="0" />

		<path
   id="path265"
   d="m 132.04492,83.75 v 6.137207 l 22.42774,-11.477051 v -6.287598 z"
   style="stroke-width:1.31753135;stroke-miterlimit:10"
   inkscape:connector-curvature="0" />

		<path
   id="path267"
   d="m 68.547363,11.509766 h -6.28955 l 11.764648,21.815429 h 6.445801 z"
   style="fill:#313390;fill-rule:evenodd;stroke:none"
   inkscape:connector-curvature="0" />

		<path
   id="path269"
   d="m 68.547363,11.509766 h -6.28955 l 11.764648,21.815429 h 6.445801 z"
   style="stroke-width:1.31753135;stroke-miterlimit:10"
   inkscape:connector-curvature="0" />

		<path
   id="path271"
   d="m 56.651856,11.621582 h -6.29004 l 11.764161,21.81543 h 6.444824 z"
   style="fill:#313390;fill-rule:evenodd;stroke:none"
   inkscape:connector-curvature="0" />

		<path
   id="path273"
   d="m 56.651856,11.621582 h -6.29004 l 11.764161,21.81543 h 6.444824 z"
   style="stroke-width:1.31753135;stroke-miterlimit:10"
   inkscape:connector-curvature="0" />

		<path
   id="path275"
   d="M 62.227051,11.401856 H 68.51709 L 56.75293,33.217285 h -6.444336 z"
   style="fill:#ffffff;fill-rule:evenodd;stroke:none"
   inkscape:connector-curvature="0" />

		<path
   id="path277"
   d="M 62.227051,11.401856 H 68.51709 L 56.75293,33.217285 h -6.444336 z"
   style="stroke-width:1.31753135;stroke-miterlimit:10"
   inkscape:connector-curvature="0" />

		<path
   id="path279"
   d="m 80.608887,11.669434 h -6.291016 l 11.76416,21.815429 h 6.445313 z"
   style="fill:#313390;fill-rule:evenodd;stroke:none"
   inkscape:connector-curvature="0" />

		<path
   id="path281"
   d="m 80.608887,11.669434 h -6.291016 l 11.76416,21.815429 h 6.445313 z"
   style="stroke-width:1.31753135;stroke-miterlimit:10"
   inkscape:connector-curvature="0" />

		<path
   id="path283"
   d="m 74.058594,11.566406 h 6.291015 l -11.76416,21.81543 h -6.445312 z"
   style="fill:#ffffff;fill-rule:evenodd;stroke:none"
   inkscape:connector-curvature="0" />

		<path
   id="path285"
   d="m 74.058594,11.566406 h 6.291015 l -11.76416,21.81543 h -6.445312 z"
   style="stroke-width:1.31753135;stroke-miterlimit:10"
   inkscape:connector-curvature="0" />

		<path
   id="path287"
   d="m 116.45996,11.659668 h -6.29004 l 11.76465,21.81543 h 6.44434 z"
   style="fill:#313390;fill-rule:evenodd;stroke:none"
   inkscape:connector-curvature="0" />

		<path
   id="path289"
   d="m 116.45996,11.659668 h -6.29004 l 11.76465,21.81543 h 6.44434 z"
   style="stroke-width:1.31753135;stroke-miterlimit:10"
   inkscape:connector-curvature="0" />

		<path
   id="path291"
   d="M 92.503906,11.558106 H 86.213867 L 97.978516,33.375488 H 104.4248 Z"
   style="fill:#313390;fill-rule:evenodd;stroke:none"
   inkscape:connector-curvature="0" />

		<path
   id="path293"
   d="M 92.503906,11.558106 H 86.213867 L 97.978516,33.375488 H 104.4248 Z"
   style="stroke-width:1.31753135;stroke-miterlimit:10"
   inkscape:connector-curvature="0" />

		<path
   id="path295"
   d="m 86.183594,11.449707 h 6.289062 L 80.709961,33.265625 h -6.444824 z"
   style="fill:#ffffff;fill-rule:evenodd;stroke:none"
   inkscape:connector-curvature="0" />

		<path
   id="path297"
   d="m 86.183594,11.449707 h 6.289062 L 80.709961,33.265625 h -6.444824 z"
   style="stroke-width:1.31753135;stroke-miterlimit:10"
   inkscape:connector-curvature="0" />

		<path
   id="path299"
   d="m 104.56445,11.770996 h -6.290036 l 11.764646,21.81543 h 6.44336 z"
   style="fill:#313390;fill-rule:evenodd;stroke:none"
   inkscape:connector-curvature="0" />

		<path
   id="path301"
   d="m 104.56445,11.770996 h -6.290036 l 11.764646,21.81543 h 6.44336 z"
   style="stroke-width:1.31753135;stroke-miterlimit:10"
   inkscape:connector-curvature="0" />

		<path
   id="path303"
   d="m 98.015625,11.614746 h 6.291015 l -11.765624,21.81543 h -6.44336 z"
   style="fill:#ffffff;fill-rule:evenodd;stroke:none"
   inkscape:connector-curvature="0" />

		<path
   id="path305"
   d="m 98.015625,11.614746 h 6.291015 l -11.765624,21.81543 h -6.44336 z"
   style="stroke-width:1.31753135;stroke-miterlimit:10"
   inkscape:connector-curvature="0" />

		<path
   id="path307"
   d="m 110.13867,11.549805 h 6.29102 l -11.76367,21.817383 h -6.445317 z"
   style="fill:#ffffff;fill-rule:evenodd;stroke:none"
   inkscape:connector-curvature="0" />

		<path
   id="path309"
   d="m 110.13867,11.549805 h 6.29102 l -11.76367,21.817383 h -6.445317 z"
   style="stroke-width:1.31753135;stroke-miterlimit:10"
   inkscape:connector-curvature="0" />

		<path
   id="path311"
   d="m 128.48633,11.717773 h -6.29004 l 11.76465,21.81543 h 6.44336 z"
   style="fill:#313390;fill-rule:evenodd;stroke:none"
   inkscape:connector-curvature="0" />

		<path
   id="path313"
   d="m 128.48633,11.717773 h -6.29004 l 11.76465,21.81543 h 6.44336 z"
   style="stroke-width:1.31753135;stroke-miterlimit:10"
   inkscape:connector-curvature="0" />

		<path
   id="path315"
   d="m 121.97266,11.714356 h 6.28906 l -11.76367,21.815918 h -6.44532 z"
   style="fill:#ffffff;fill-rule:evenodd;stroke:none"
   inkscape:connector-curvature="0" />

		<path
   id="path317"
   d="m 121.97266,11.714356 h 6.28906 l -11.76367,21.815918 h -6.44532 z"
   style="stroke-width:1.31753135;stroke-miterlimit:10"
   inkscape:connector-curvature="0" />

		<path
   id="path319"
   d="M 44.647949,11.651367 H 38.35791 l 11.764648,21.81543 h 6.44336 z"
   style="fill:#313390;fill-rule:evenodd;stroke:none"
   inkscape:connector-curvature="0" />

		<path
   id="path321"
   d="M 44.647949,11.651367 H 38.35791 l 11.764648,21.81543 h 6.44336 z"
   style="stroke-width:1.31753135;stroke-miterlimit:10"
   inkscape:connector-curvature="0" />

		<path
   id="path323"
   d="m 32.868164,11.43457 h -6.290039 l 11.764648,21.815918 h 6.444336 z"
   style="fill:#313390;fill-rule:evenodd;stroke:none"
   inkscape:connector-curvature="0" />

		<path
   id="path325"
   d="m 32.868164,11.43457 h -6.290039 l 11.764648,21.815918 h 6.444336 z"
   style="stroke-width:1.31753135;stroke-miterlimit:10"
   inkscape:connector-curvature="0" />

		<path
   id="path327"
   d="m 50.223144,11.431152 h 6.29004 L 44.748535,33.24707 H 38.303711 L 50.223145,11.431152 Z"
   style="fill:#ffffff;fill-rule:evenodd;stroke:none"
   inkscape:connector-curvature="0" />

		<path
   id="path329"
   d="m 50.223144,11.431152 h 6.29004 L 44.748535,33.24707 H 38.303711 L 50.223145,11.431152 Z"
   style="stroke-width:1.31753135;stroke-miterlimit:10"
   inkscape:connector-curvature="0" />

		<path
   id="path331"
   d="m 20.957031,11.43457 h -6.290039 l 11.76416,21.815918 h 6.444336 z"
   style="fill:#313390;fill-rule:evenodd;stroke:none"
   inkscape:connector-curvature="0" />

		<path
   id="path333"
   d="m 20.957031,11.43457 h -6.290039 l 11.76416,21.815918 h 6.444336 z"
   style="stroke-width:1.31753135;stroke-miterlimit:10"
   inkscape:connector-curvature="0" />

		<path
   id="path335"
   d="m 38.34082,11.43457 h 6.290039 L 32.866211,33.250488 h -6.443359 z"
   style="fill:#ffffff;fill-rule:evenodd;stroke:none"
   inkscape:connector-curvature="0" />

		<path
   id="path337"
   d="m 38.34082,11.43457 h 6.290039 L 32.866211,33.250488 h -6.443359 z"
   style="stroke-width:1.31753135;stroke-miterlimit:10"
   inkscape:connector-curvature="0" />

		<path
   id="path339"
   d="m 26.584961,11.43457 h 6.290527 L 21.112305,33.250488 h -6.445313 z"
   style="fill:#ffffff;fill-rule:evenodd;stroke:none"
   inkscape:connector-curvature="0" />

		<path
   id="path341"
   d="m 26.584961,11.43457 h 6.290527 L 21.112305,33.250488 h -6.445313 z"
   style="stroke-width:1.31753135;stroke-miterlimit:10"
   inkscape:connector-curvature="0" />

		<path
   id="path343"
   d="m 140.38281,11.606445 h -6.29101 l 11.76562,21.816895 h 6.44336 z"
   style="fill:#313390;fill-rule:evenodd;stroke:none"
   inkscape:connector-curvature="0" />

		<path
   id="path345"
   d="m 140.38281,11.606445 h -6.29101 l 11.76562,21.816895 h 6.44336 z"
   style="stroke-width:1.31753135;stroke-miterlimit:10"
   inkscape:connector-curvature="0" />

		<path
   id="path347"
   d="m 134.0625,11.498047 h 6.28906 l -11.76367,21.81543 h -6.44726 z"
   style="fill:#ffffff;fill-rule:evenodd;stroke:none"
   inkscape:connector-curvature="0" />

		<path
   id="path349"
   d="m 134.0625,11.498047 h 6.28906 l -11.76367,21.81543 h -6.44726 z"
   style="stroke-width:1.31753135;stroke-miterlimit:10"
   inkscape:connector-curvature="0" />

		<path
   id="path351"
   d="m 145.89258,11.663086 h 6.29004 l -11.7627,21.81543 h -6.44531 z"
   style="fill:#ffffff;fill-rule:evenodd;stroke:none"
   inkscape:connector-curvature="0" />

		<path
   id="path353"
   d="m 145.89258,11.663086 h 6.29004 l -11.7627,21.81543 h -6.44531 z"
   style="stroke-width:1.31753135;stroke-miterlimit:10"
   inkscape:connector-curvature="0" />

		<path
   id="path355"
   d="m 68.88916,209.93262 h -6.290527 l 11.763672,21.81543 h 6.445312 z"
   style="fill:#313390;fill-rule:evenodd;stroke:none"
   inkscape:connector-curvature="0" />

		<path
   id="path357"
   d="m 68.88916,209.93262 h -6.290527 l 11.763672,21.81543 h 6.445312 z"
   style="stroke-width:1.31753135;stroke-miterlimit:10"
   inkscape:connector-curvature="0" />

		<path
   id="path359"
   d="m 56.993652,210.04395 h -6.291504 l 11.764649,21.8164 h 6.445312 z"
   style="fill:#313390;fill-rule:evenodd;stroke:none"
   inkscape:connector-curvature="0" />

		<path
   id="path361"
   d="m 56.993652,210.04395 h -6.291504 l 11.764649,21.8164 h 6.445312 z"
   style="stroke-width:1.31753135;stroke-miterlimit:10"
   inkscape:connector-curvature="0" />

		<path
   id="path363"
   d="m 62.566894,209.8252 h 6.291993 l -11.76416,21.81445 h -6.44629 z"
   style="fill:#ffffff;fill-rule:evenodd;stroke:none"
   inkscape:connector-curvature="0" />

		<path
   id="path365"
   d="m 62.566894,209.8252 h 6.291993 l -11.76416,21.81445 h -6.44629 z"
   style="stroke-width:1.31753135;stroke-miterlimit:10"
   inkscape:connector-curvature="0" />

		<path
   id="path367"
   d="m 80.94873,210.09277 h -6.28955 l 11.763672,21.81446 h 6.444336 z"
   style="fill:#313390;fill-rule:evenodd;stroke:none"
   inkscape:connector-curvature="0" />

		<path
   id="path369"
   d="m 80.94873,210.09277 h -6.28955 l 11.763672,21.81446 h 6.444336 z"
   style="stroke-width:1.31753135;stroke-miterlimit:10"
   inkscape:connector-curvature="0" />

		<path
   id="path371"
   d="m 74.399902,209.98926 h 6.290039 l -11.76416,21.8164 h -6.444824 z"
   style="fill:#ffffff;fill-rule:evenodd;stroke:none"
   inkscape:connector-curvature="0" />

		<path
   id="path373"
   d="m 74.399902,209.98926 h 6.290039 l -11.76416,21.8164 h -6.444824 z"
   style="stroke-width:1.31753135;stroke-miterlimit:10"
   inkscape:connector-curvature="0" />

		<path
   id="path375"
   d="m 116.80078,210.08203 h -6.29101 l 11.76562,21.81543 h 6.44531 z"
   style="fill:#313390;fill-rule:evenodd;stroke:none"
   inkscape:connector-curvature="0" />

		<path
   id="path377"
   d="m 116.80078,210.08203 h -6.29101 l 11.76562,21.81543 h 6.44531 z"
   style="stroke-width:1.31753135;stroke-miterlimit:10"
   inkscape:connector-curvature="0" />

		<path
   id="path379"
   d="m 92.845703,209.98047 h -6.291015 l 11.763671,21.81641 h 6.446291 z"
   style="fill:#313390;fill-rule:evenodd;stroke:none"
   inkscape:connector-curvature="0" />

		<path
   id="path381"
   d="m 92.845703,209.98047 h -6.291015 l 11.763671,21.81641 h 6.446291 z"
   style="stroke-width:1.31753135;stroke-miterlimit:10"
   inkscape:connector-curvature="0" />

		<path
   id="path383"
   d="M 86.523438,209.87305 H 92.81543 L 81.050781,231.68848 H 74.605957 Z"
   style="fill:#ffffff;fill-rule:evenodd;stroke:none"
   inkscape:connector-curvature="0" />

		<path
   id="path385"
   d="M 86.523438,209.87305 H 92.81543 L 81.050781,231.68848 H 74.605957 Z"
   style="stroke-width:1.31753135;stroke-miterlimit:10"
   inkscape:connector-curvature="0" />

		<path
   id="path387"
   d="m 104.90625,210.19434 h -6.292969 l 11.765629,21.81543 h 6.44531 z"
   style="fill:#313390;fill-rule:evenodd;stroke:none"
   inkscape:connector-curvature="0" />

		<path
   id="path389"
   d="m 104.90625,210.19434 h -6.292969 l 11.765629,21.81543 h 6.44531 z"
   style="stroke-width:1.31753135;stroke-miterlimit:10"
   inkscape:connector-curvature="0" />

		<path
   id="path391"
   d="m 98.355469,210.03809 h 6.291011 L 92.880859,231.85254 H 86.4375 Z"
   style="fill:#ffffff;fill-rule:evenodd;stroke:none"
   inkscape:connector-curvature="0" />

		<path
   id="path393"
   d="m 98.355469,210.03809 h 6.291011 L 92.880859,231.85254 H 86.4375 Z"
   style="stroke-width:1.31753135;stroke-miterlimit:10"
   inkscape:connector-curvature="0" />

		<path
   id="path395"
   d="m 110.47949,209.97168 h 6.29004 l -11.76172,21.81836 h -6.446287 z"
   style="fill:#ffffff;fill-rule:evenodd;stroke:none"
   inkscape:connector-curvature="0" />

		<path
   id="path397"
   d="m 110.47949,209.97168 h 6.29004 l -11.76172,21.81836 h -6.446287 z"
   style="stroke-width:1.31753135;stroke-miterlimit:10"
   inkscape:connector-curvature="0" />

		<path
   id="path399"
   d="m 128.65234,210.20801 h -6.29101 l 11.76562,21.8164 h 6.44336 z"
   style="fill:#313390;fill-rule:evenodd;stroke:none"
   inkscape:connector-curvature="0" />

		<path
   id="path401"
   d="m 128.65234,210.20801 h -6.29101 l 11.76562,21.8164 h 6.44336 z"
   style="stroke-width:1.31753135;stroke-miterlimit:10"
   inkscape:connector-curvature="0" />

		<path
   id="path403"
   d="m 122.3125,210.1377 h 6.28906 l -11.76367,21.81543 h -6.44531 z"
   style="fill:#ffffff;fill-rule:evenodd;stroke:none"
   inkscape:connector-curvature="0" />

		<path
   id="path405"
   d="m 122.3125,210.1377 h 6.28906 l -11.76367,21.81543 h -6.44531 z"
   style="stroke-width:1.31753135;stroke-miterlimit:10"
   inkscape:connector-curvature="0" />

		<path
   id="path407"
   d="M 44.988281,210.07422 H 38.69873 l 11.763672,21.81543 h 6.444336 z"
   style="fill:#313390;fill-rule:evenodd;stroke:none"
   inkscape:connector-curvature="0" />

		<path
   id="path409"
   d="M 44.988281,210.07422 H 38.69873 l 11.763672,21.81543 h 6.444336 z"
   style="stroke-width:1.31753135;stroke-miterlimit:10"
   inkscape:connector-curvature="0" />

		<path
   id="path411"
   d="m 32.999023,210.11621 h -6.291015 l 11.764648,21.81641 h 6.444336 z"
   style="fill:#313390;fill-rule:evenodd;stroke:none"
   inkscape:connector-curvature="0" />

		<path
   id="path413"
   d="m 32.999023,210.11621 h -6.291015 l 11.764648,21.81641 h 6.444336 z"
   style="stroke-width:1.31753135;stroke-miterlimit:10"
   inkscape:connector-curvature="0" />

		<path
   id="path415"
   d="m 50.563965,209.85449 h 6.289062 l -11.763183,21.81543 h -6.444336 z"
   style="fill:#ffffff;fill-rule:evenodd;stroke:none"
   inkscape:connector-curvature="0" />

		<path
   id="path417"
   d="m 50.563965,209.85449 h 6.289062 l -11.763183,21.81543 h -6.444336 z"
   style="stroke-width:1.31753135;stroke-miterlimit:10"
   inkscape:connector-curvature="0" />

		<path
   id="path419"
   d="m 140.54785,210.09766 h -6.29004 l 11.7627,21.81738 h 6.44629 z"
   style="fill:#313390;fill-rule:evenodd;stroke:none"
   inkscape:connector-curvature="0" />

		<path
   id="path421"
   d="m 140.54785,210.09766 h -6.29004 l 11.7627,21.81738 h 6.44629 z"
   style="stroke-width:1.31753135;stroke-miterlimit:10"
   inkscape:connector-curvature="0" />

		<path
   id="path423"
   d="m 134.22754,209.98926 h 6.29004 l -11.76367,21.8164 h -6.44727 z"
   style="fill:#ffffff;fill-rule:evenodd;stroke:none"
   inkscape:connector-curvature="0" />

		<path
   id="path425"
   d="m 134.22754,209.98926 h 6.29004 l -11.76367,21.8164 h -6.44727 z"
   style="stroke-width:1.31753135;stroke-miterlimit:10"
   inkscape:connector-curvature="0" />

		<path
   id="path427"
   d="m 146.05859,210.15332 h 6.28907 l -11.76368,21.81641 h -6.44433 z"
   style="fill:#ffffff;fill-rule:evenodd;stroke:none"
   inkscape:connector-curvature="0" />

		<path
   id="path429"
   d="m 146.05859,210.15332 h 6.28907 l -11.76368,21.81641 h -6.44433 z"
   style="stroke-width:1.31753135;stroke-miterlimit:10"
   inkscape:connector-curvature="0" />

		<path
   id="path431"
   d="M 38.572754,209.89551 H 44.86377 L 33.099121,231.71387 H 26.655273 Z"
   style="fill:#ffffff;fill-rule:evenodd;stroke:none"
   inkscape:connector-curvature="0" />

		<path
   id="path433"
   d="M 38.572754,209.89551 H 44.86377 L 33.099121,231.71387 H 26.655273 Z"
   style="stroke-width:1.31753135;stroke-miterlimit:10"
   inkscape:connector-curvature="0" />

		<path
   id="path435"
   d="m 20.994629,210.14746 h -6.291016 l 11.764649,21.81543 h 6.444824 z"
   style="fill:#313390;fill-rule:evenodd;stroke:none"
   inkscape:connector-curvature="0" />

		<path
   id="path437"
   d="m 20.994629,210.14746 h -6.291016 l 11.764649,21.81543 h 6.444824 z"
   style="stroke-width:1.31753135;stroke-miterlimit:10"
   inkscape:connector-curvature="0" />

		<path
   id="path439"
   d="m 26.568848,209.92578 h 6.291015 l -11.76416,21.81738 h -6.446289 z"
   style="fill:#ffffff;fill-rule:evenodd;stroke:none"
   inkscape:connector-curvature="0" />

		<path
   id="path441"
   d="m 26.568848,209.92578 h 6.291015 l -11.76416,21.81738 h -6.446289 z"
   style="stroke-width:1.31753135;stroke-miterlimit:10"
   inkscape:connector-curvature="0" />

		<path
   id="path443"
   d="m 166.83008,235.54492 c 0,3.77442 -3.08594,6.87012 -6.8711,6.87012 H 7.1108398 C 3.3359375,242.41504 0.25,239.31934 0.25,235.54492 V 7.1196289 C 0.25,3.340332 3.3359375,0.25 7.1108398,0.25 H 159.95898 c 3.78516,0 6.8711,3.090332 6.8711,6.8696289 z"
   style="stroke:#000000;stroke-width:0.50045443;stroke-linecap:butt;stroke-linejoin:miter"
   inkscape:connector-curvature="0" />

	</g>
  </g>
</svg>
